<svg width="70" height="70" viewBox="0 0 70 70" fill="none" xmlns="http://www.w3.org/2000/svg">
<circle cx="35" cy="35" r="34" stroke="#262840" stroke-width="2"/>
<path d="M27 21.6667L23 27.0001V45.6667C23 46.374 23.281 47.0523 23.781 47.5524C24.2811 48.0525 24.9594 48.3334 25.6667 48.3334H44.3333C45.0406 48.3334 45.7189 48.0525 46.219 47.5524C46.719 47.0523 47 46.374 47 45.6667V27.0001L43 21.6667H27Z" fill="#DBE9F5" stroke="#262840" stroke-width="2" stroke-linecap="round" stroke-linejoin="round"/>
<path d="M23 27H47" stroke="#262840" stroke-width="2" stroke-linecap="round" stroke-linejoin="round"/>
<path d="M40.3333 32.3333C40.3333 33.7477 39.7714 35.1043 38.7712 36.1045C37.771 37.1047 36.4145 37.6666 35 37.6666C33.5855 37.6666 32.229 37.1047 31.2288 36.1045C30.2286 35.1043 29.6667 33.7477 29.6667 32.3333" stroke="#262840" stroke-width="2" stroke-linecap="round" stroke-linejoin="round"/>
</svg>
