<svg width="25" height="10" viewBox="0 0 25 10" fill="none" xmlns="http://www.w3.org/2000/svg">
<path fill-rule="evenodd" clip-rule="evenodd" d="M0 0.807692C0 0.361616 0.447715 0 1 0H19C19.5523 0 20 0.361616 20 0.807692C20 1.25377 19.5523 1.61538 19 1.61538H1C0.447715 1.61538 0 1.25377 0 0.807692Z" fill="#262840"/>
<path fill-rule="evenodd" clip-rule="evenodd" d="M5 4.84627C5 4.40019 5.44772 4.03857 6 4.03857H24C24.5523 4.03857 25 4.40019 25 4.84627C25 5.29234 24.5523 5.65396 24 5.65396H6C5.44772 5.65396 5 5.29234 5 4.84627Z" fill="#262840"/>
<path fill-rule="evenodd" clip-rule="evenodd" d="M0 8.88484C0 8.43876 0.447715 8.07715 1 8.07715H19C19.5523 8.07715 20 8.43876 20 8.88484C20 9.33092 19.5523 9.69253 19 9.69253H1C0.447715 9.69253 0 9.33092 0 8.88484Z" fill="#262840"/>
</svg>
