<svg width="16" height="17" viewBox="0 0 16 17" fill="none" xmlns="http://www.w3.org/2000/svg">
<path d="M13.3333 9.8335H2.66666C1.93028 9.8335 1.33333 10.4304 1.33333 11.1668V13.8335C1.33333 14.5699 1.93028 15.1668 2.66666 15.1668H13.3333C14.0697 15.1668 14.6667 14.5699 14.6667 13.8335V11.1668C14.6667 10.4304 14.0697 9.8335 13.3333 9.8335Z" fill="#DBE9F5" stroke="#4A5F73" stroke-width="1.2" stroke-linecap="round" stroke-linejoin="round"/>
<path d="M4.8 13.0832C4.8 13.2002 4.77259 13.3124 4.71777 13.4197C4.66295 13.5245 4.58187 13.6123 4.47452 13.683C4.36945 13.7537 4.24268 13.7939 4.09422 13.8037V14.0999H3.9092V13.8037C3.70135 13.7842 3.53233 13.7135 3.40214 13.5916C3.27195 13.4672 3.20571 13.31 3.20342 13.1198H3.53576C3.54489 13.2222 3.5803 13.3112 3.64197 13.3868C3.70592 13.4623 3.795 13.5099 3.9092 13.5294V12.6151C3.75617 12.5737 3.63283 12.531 3.53918 12.4871C3.44554 12.4432 3.36559 12.375 3.29935 12.2823C3.23312 12.1897 3.2 12.0653 3.2 11.9093C3.2 11.7118 3.26395 11.5484 3.39186 11.4192C3.52205 11.29 3.6945 11.2181 3.9092 11.2034V10.8999H4.09422V11.2034C4.28836 11.2205 4.44482 11.2876 4.56359 11.4046C4.68237 11.5192 4.75089 11.6691 4.76916 11.8544H4.43683C4.42541 11.7691 4.39 11.6923 4.33062 11.624C4.27123 11.5533 4.19243 11.507 4.09422 11.485V12.3774C4.24496 12.4188 4.36716 12.4615 4.46081 12.5054C4.55674 12.5468 4.63669 12.6139 4.70064 12.7065C4.76688 12.7992 4.8 12.9247 4.8 13.0832ZM3.51863 11.891C3.51863 12.0105 3.55175 12.1019 3.61798 12.1653C3.68422 12.2287 3.7813 12.2811 3.9092 12.3225V11.4777C3.79043 11.4899 3.69564 11.5314 3.62484 11.6021C3.55403 11.6703 3.51863 11.7666 3.51863 11.891ZM4.09422 13.533C4.21756 13.5184 4.31349 13.4709 4.38201 13.3904C4.45282 13.31 4.48822 13.2137 4.48822 13.1015C4.48822 12.982 4.45396 12.8906 4.38544 12.8272C4.31691 12.7614 4.21984 12.709 4.09422 12.67V13.533Z" fill="#4A5F73"/>
<path d="M13.3333 1.8335H2.66666C1.93028 1.8335 1.33333 2.43045 1.33333 3.16683V5.8335C1.33333 6.56988 1.93028 7.16683 2.66666 7.16683H13.3333C14.0697 7.16683 14.6667 6.56988 14.6667 5.8335V3.16683C14.6667 2.43045 14.0697 1.8335 13.3333 1.8335Z" fill="#DBE9F5" stroke="#4A5F73" stroke-width="1.2" stroke-linecap="round" stroke-linejoin="round"/>
<path d="M4.8 5.08322C4.8 5.20025 4.77259 5.3124 4.71777 5.41967C4.66295 5.52451 4.58187 5.61228 4.47452 5.68299C4.36945 5.75369 4.24268 5.79392 4.09422 5.80367V6.0999H3.9092V5.80367C3.70135 5.78417 3.53233 5.71346 3.40214 5.59156C3.27195 5.46722 3.20571 5.30996 3.20342 5.11979H3.53576C3.54489 5.22219 3.5803 5.31118 3.64197 5.38676C3.70592 5.46234 3.795 5.50988 3.9092 5.52939V4.6151C3.75617 4.57365 3.63283 4.53099 3.53918 4.4871C3.44554 4.44322 3.36559 4.37495 3.29935 4.2823C3.23312 4.18965 3.2 4.06531 3.2 3.90927C3.2 3.71179 3.26395 3.54844 3.39186 3.41922C3.52205 3.29 3.6945 3.21807 3.9092 3.20345V2.8999H4.09422V3.20345C4.28836 3.22051 4.44482 3.28756 4.56359 3.40459C4.68237 3.51918 4.75089 3.66912 4.76916 3.85442H4.43683C4.42541 3.76908 4.39 3.69228 4.33062 3.62402C4.27123 3.55331 4.19243 3.50699 4.09422 3.48505V4.37739C4.24496 4.41884 4.36716 4.4615 4.46081 4.50539C4.55674 4.54684 4.63669 4.61388 4.70064 4.70653C4.76688 4.79918 4.8 4.92474 4.8 5.08322ZM3.51863 3.89099C3.51863 4.01045 3.55175 4.10188 3.61798 4.16527C3.68422 4.22866 3.7813 4.28108 3.9092 4.32253V3.47773C3.79043 3.48992 3.69564 3.53137 3.62484 3.60207C3.55403 3.67034 3.51863 3.76665 3.51863 3.89099ZM4.09422 5.53305C4.21756 5.51842 4.31349 5.47087 4.38201 5.39042C4.45282 5.30996 4.48822 5.21365 4.48822 5.1015C4.48822 4.98204 4.45396 4.89061 4.38544 4.82722C4.31691 4.76139 4.21984 4.70897 4.09422 4.66996V5.53305Z" fill="#4A5F73"/>
</svg>
