<svg width="31" height="22" viewBox="0 0 31 22" fill="none" xmlns="http://www.w3.org/2000/svg">
<rect width="31" height="22" rx="11" fill="#262840"/>
<path d="M7.55195 14.12C6.90529 14.12 6.35195 13.97 5.89195 13.67C5.43195 13.3633 5.07529 12.94 4.82195 12.4C4.57529 11.8533 4.45195 11.22 4.45195 10.5C4.45195 9.78667 4.57529 9.15667 4.82195 8.61C5.07529 8.06333 5.43195 7.64 5.89195 7.34C6.35195 7.03333 6.90529 6.88 7.55195 6.88C8.19862 6.88 8.75195 7.03333 9.21195 7.34C9.67195 7.64 10.0253 8.06333 10.272 8.61C10.5253 9.15667 10.652 9.78667 10.652 10.5C10.652 11.22 10.5253 11.8533 10.272 12.4C10.0253 12.94 9.67195 13.3633 9.21195 13.67C8.75195 13.97 8.19862 14.12 7.55195 14.12ZM7.55195 12.97C8.07862 12.97 8.50862 12.75 8.84195 12.31C9.17529 11.87 9.34195 11.2667 9.34195 10.5C9.34195 9.73333 9.17529 9.13 8.84195 8.69C8.50862 8.25 8.07862 8.03 7.55195 8.03C7.01862 8.03 6.58529 8.25 6.25195 8.69C5.92529 9.13 5.76195 9.73333 5.76195 10.5C5.76195 11.2667 5.92529 11.87 6.25195 12.31C6.58529 12.75 7.01862 12.97 7.55195 12.97ZM14.1644 14V7H18.7344V8.03H15.4444V9.95H18.4344V10.95H15.4444V12.97H18.7344V14H14.1644ZM23.0056 14.12C22.3456 14.12 21.769 13.97 21.2756 13.67C20.7823 13.37 20.399 12.9533 20.1256 12.42C19.8523 11.88 19.7156 11.2533 19.7156 10.54C19.7156 9.82 19.8556 9.18667 20.1356 8.64C20.4223 8.08667 20.8256 7.65667 21.3456 7.35C21.8723 7.03667 22.4956 6.88 23.2156 6.88C24.0356 6.88 24.7156 7.07667 25.2556 7.47C25.7956 7.86333 26.1456 8.40667 26.3056 9.1H24.8756C24.769 8.77333 24.5756 8.52 24.2956 8.34C24.0156 8.15333 23.6556 8.06 23.2156 8.06C22.5156 8.06 21.9756 8.28333 21.5956 8.73C21.2156 9.17 21.0256 9.77667 21.0256 10.55C21.0256 11.3233 21.2123 11.9233 21.5856 12.35C21.9656 12.77 22.479 12.98 23.1256 12.98C23.759 12.98 24.2356 12.81 24.5556 12.47C24.8823 12.1233 25.079 11.67 25.1456 11.11H23.3756V10.15H26.4356V14H25.2556L25.1556 13.08C24.929 13.4133 24.6456 13.67 24.3056 13.85C23.9656 14.03 23.5323 14.12 23.0056 14.12Z" fill="white"/>
</svg>
