<svg width="7" height="99" viewBox="0 0 7 99" fill="none" xmlns="http://www.w3.org/2000/svg">
<g id="Asset 1 3" clip-path="url(#clip0_130_369)">
<g id="Layer 1">
<g id="Group">
<g id="Group_2">
<g id="Group_3">
<path id="Vector" d="M0.150146 14.6037C0.154861 14.525 0.183508 14.4543 0.236815 14.3919C0.290121 14.3295 0.360471 14.298 0.44859 14.298H2.51086C2.58049 14.298 2.65193 14.327 2.72626 14.385C2.80024 14.443 2.83723 14.5159 2.83723 14.604V17.9018H6.28837V14.604C6.28837 14.5206 6.31738 14.4488 6.37504 14.3883C6.4327 14.3277 6.50776 14.2976 6.60023 14.2976H8.62951C8.72198 14.2976 8.80284 14.3208 8.87174 14.3672C8.941 14.4136 8.97582 14.4876 8.97582 14.5895V24.3044C8.97582 24.4063 8.94572 24.4828 8.88588 24.5335C8.82569 24.5847 8.74736 24.6101 8.65054 24.6101H6.60023C6.50776 24.6101 6.4327 24.5847 6.37504 24.5335C6.31738 24.4828 6.28837 24.4063 6.28837 24.3044V20.36H2.83723V24.3044C2.83723 24.4015 2.80604 24.477 2.74331 24.5299C2.68094 24.5832 2.59644 24.6097 2.48983 24.6097H0.44859C0.254221 24.6097 0.154498 24.5194 0.150146 24.3388V14.6033V14.6037Z" fill="#DCD1E0"/>
</g>
<g id="Group_4">
<path id="Vector_2" d="M0.150146 72.1856C0.154861 72.1069 0.183508 72.0362 0.236815 71.9738C0.290121 71.9114 0.360471 71.8802 0.44859 71.8802H2.51086C2.58049 71.8802 2.65193 71.9093 2.72626 71.9673C2.80024 72.0253 2.83723 72.0982 2.83723 72.1863V75.4841H6.28837V72.1863C6.28837 72.1029 6.31738 72.0311 6.37504 71.9705C6.4327 71.9103 6.50776 71.8799 6.60023 71.8799H8.62951C8.72198 71.8799 8.80284 71.9031 8.87174 71.9495C8.941 71.9959 8.97582 72.0699 8.97582 72.1718V81.8866C8.97582 81.9885 8.94572 82.0651 8.88588 82.1158C8.82569 82.1669 8.74736 82.1923 8.65054 82.1923H6.60023C6.50776 82.1923 6.4327 82.1669 6.37504 82.1158C6.31738 82.0651 6.28837 81.9885 6.28837 81.8866V77.9423H2.83723V81.8866C2.83723 81.9838 2.80604 82.0593 2.74331 82.1122C2.68094 82.1655 2.59644 82.192 2.48983 82.192H0.44859C0.254221 82.192 0.154498 82.1017 0.150146 81.9211V72.1856Z" fill="#DCD1E0"/>
</g>
<g id="Group_5">
<path id="Vector_3" d="M9.12593 12.2752H0V7.49717C0.00652733 7.38548 0.0478671 7.28431 0.122569 7.19655C0.20416 7.10082 0.316575 7.05005 0.448572 7.05005H2.51084C2.61419 7.05005 2.71754 7.08994 2.81835 7.16899C2.92896 7.25566 2.98698 7.37206 2.98698 7.50624V10.6542H6.13823V7.50624C6.13823 7.38512 6.18247 7.27452 6.2666 7.18712C6.35218 7.09755 6.46749 7.05041 6.60021 7.05041H8.62949C8.75133 7.05041 8.86084 7.08232 8.95513 7.14506C9.03309 7.19728 9.12593 7.29954 9.12593 7.49209V12.2755V12.2752ZM0.299894 11.9753H8.82603V7.49173C8.82603 7.41921 8.80065 7.40216 8.78868 7.39418C8.74444 7.36445 8.69222 7.35031 8.62985 7.35031H6.60058C6.53458 7.35031 6.50339 7.37388 6.48381 7.39455C6.45262 7.42718 6.43884 7.46163 6.43884 7.5066V10.9545H2.68781V7.5066C2.68781 7.47759 2.68128 7.44278 2.63414 7.40543C2.58736 7.3688 2.54602 7.35031 2.51121 7.35031H0.448572C0.39309 7.35031 0.368069 7.37098 0.351025 7.39128C0.319476 7.42827 0.303158 7.46635 0.299894 7.51095V11.9756V11.9753Z" fill="#DCD1E0"/>
</g>
<g id="Group_6">
<path id="Vector_4" d="M9.12593 5.37771H0V0.59971C0.00652733 0.48802 0.0478671 0.386846 0.122569 0.29909C0.20416 0.203356 0.316938 0.152588 0.448572 0.152588H2.51084C2.61419 0.152588 2.71754 0.192477 2.81835 0.27153C2.92896 0.358199 2.98698 0.474603 2.98698 0.608775V3.75676H6.13823V0.608775C6.13823 0.487657 6.18247 0.377055 6.2666 0.289662C6.35218 0.200092 6.46749 0.152951 6.60021 0.152951H8.62949C8.75133 0.152951 8.86084 0.184862 8.95513 0.247597C9.03309 0.299815 9.12593 0.402439 9.12593 0.594633V5.37807V5.37771ZM0.299894 5.07782H8.82603V0.59427C8.82603 0.521744 8.80065 0.504701 8.78868 0.496723C8.74444 0.466987 8.69222 0.452845 8.62985 0.452845H6.60058C6.53458 0.452845 6.50339 0.476416 6.48381 0.497086C6.45262 0.529722 6.43884 0.564172 6.43884 0.609138V4.05702H2.68781V0.608775C2.68781 0.579765 2.68128 0.544953 2.63414 0.507602C2.58736 0.470976 2.54602 0.452482 2.51121 0.452482H0.448572C0.39309 0.452482 0.368069 0.473152 0.351025 0.493459C0.319476 0.530448 0.303158 0.568524 0.299894 0.613127V5.07782Z" fill="#DCD1E0"/>
</g>
<path id="Vector_5" d="M29.8737 68.9046L28.718 68.4317C28.3547 68.283 27.9892 68.1242 27.6356 67.9704C27.4521 67.8907 27.2686 67.8109 27.0844 67.7318C26.642 67.544 26.2068 67.3282 25.7858 67.1193C25.6817 67.0675 25.5773 67.016 25.4729 66.9645L24.6754 66.5663C24.501 66.476 24.3295 66.381 24.1634 66.2893C24.072 66.2389 23.981 66.1881 23.8893 66.1384L22.7143 65.4828L22.3329 65.2514C20.2282 63.9986 18.2587 62.5901 16.4804 61.0656L16.4775 61.0631C16.3248 60.9256 16.1718 60.7886 16.0184 60.6519C15.7268 60.3918 15.4259 60.1228 15.1336 59.8515C14.9816 59.705 14.8315 59.5563 14.6861 59.4127C14.619 59.3464 14.5519 59.2797 14.4845 59.2137C14.4366 59.1662 14.3891 59.1194 14.342 59.0726C14.1755 58.9087 14.0033 58.7393 13.8423 58.5606C13.7317 58.4402 13.6163 58.3176 13.505 58.199C13.2069 57.8817 12.8983 57.5535 12.6177 57.2058L12.0284 56.507L11.1889 55.4242C11.1182 55.3299 11.0515 55.2345 10.9873 55.1421C10.9648 55.1098 10.9423 55.0775 10.9198 55.0452L10.3922 54.2888L9.89795 53.5157C9.86894 53.4693 9.83992 53.4243 9.81128 53.3793C9.75797 53.2963 9.70285 53.2103 9.651 53.1229L9.18937 52.3248C9.11539 52.1964 9.0367 52.0579 8.96454 51.9128L8.54099 51.0911L8.51887 51.0444C8.26648 50.5106 8.00502 49.9586 7.78128 49.3969C7.3066 48.2151 6.9262 47.0188 6.65024 45.8413C6.63827 45.787 6.6263 45.7347 6.61397 45.6825C6.59113 45.5846 6.56792 45.4831 6.54798 45.3808L6.41634 44.6885L6.30864 43.9956C6.24083 43.4763 6.16069 42.7963 6.13857 42.1081L6.12805 41.6323V41.6301C6.12805 41.5779 6.12841 41.5257 6.12841 41.4738C6.12841 41.3694 6.12841 41.2613 6.13095 41.154C6.13458 41.0017 6.13857 40.8385 6.14691 40.6782L6.15742 40.4799V40.3798L6.16214 40.2616C6.17374 39.6937 6.23176 39.0845 6.34454 38.3469C6.46385 37.6593 6.606 37.048 6.7797 36.4743C6.99764 35.7918 7.22138 35.2069 7.4647 34.6836C8.0101 33.5051 8.70562 32.4295 9.53133 31.4867C10.3755 30.5192 11.3477 29.7011 12.4208 29.0552C13.0499 28.6854 13.5841 28.421 14.103 28.2223L14.3217 28.1349L14.5396 28.0602C14.5907 28.0431 14.6404 28.0261 14.6897 28.0087C14.7844 27.9757 14.8819 27.942 14.9816 27.913L15.4241 27.7889C15.5223 27.7592 15.6242 27.7382 15.7229 27.7175C15.774 27.707 15.8248 27.6965 15.8752 27.6845C17.0022 27.4303 18.2221 27.3701 19.5025 27.5061L20.6869 27.6316L19.5083 27.8034C19.4431 27.8129 19.3778 27.8223 19.3125 27.8317C18.7856 27.9075 18.2877 27.9793 17.7964 28.1146L17.7913 28.116L17.5835 28.1653L17.3783 28.2248C17.3293 28.2393 17.2796 28.2535 17.2296 28.268C17.1436 28.2926 17.0548 28.318 16.9692 28.3452C16.8815 28.3768 16.7926 28.4072 16.7067 28.4362C16.5203 28.4997 16.3444 28.5595 16.1718 28.6346L16.1649 28.6375C15.9673 28.7122 15.7704 28.8032 15.58 28.8917C15.5172 28.9207 15.4549 28.9497 15.3925 28.978C15.3153 29.0143 15.2387 29.0549 15.1579 29.098C15.1122 29.1223 15.0669 29.1466 15.0212 29.1702L14.8388 29.2663L14.66 29.3725C14.21 29.6286 13.7632 29.935 13.2914 30.3114C11.6161 31.6495 10.3244 33.463 9.55635 35.5557C9.38628 36.0076 9.23977 36.4982 9.09545 37.1013C8.97904 37.6075 8.88875 38.1398 8.8271 38.682L8.79446 39.0838C8.78105 39.2176 8.77633 39.3528 8.77271 39.4801C8.77162 39.537 8.76908 39.5951 8.76654 39.6531C8.76292 39.7314 8.75965 39.8057 8.75965 39.8804V40.3838L8.76437 40.5067L8.76219 40.7489C8.7611 40.8846 8.76328 41.018 8.76582 41.1544C8.76727 41.2378 8.77089 41.3237 8.77452 41.4068C8.7767 41.4572 8.77887 41.5072 8.78032 41.5576L8.80679 41.9638C8.85176 42.5048 8.91776 43.0516 9.00298 43.5862L9.11322 44.1917L9.24485 44.7981C9.26298 44.8815 9.2851 44.9671 9.30686 45.0497C9.31955 45.099 9.33261 45.148 9.34457 45.1977C9.60095 46.2399 9.94799 47.2995 10.377 48.3468C10.5634 48.8276 10.7838 49.3048 10.9967 49.7664L11.0468 49.8749L11.425 50.6237C11.4866 50.751 11.5552 50.8743 11.6201 50.9885L12.0273 51.7301C12.0694 51.8051 12.1165 51.8828 12.1622 51.9578C12.1887 52.0013 12.2151 52.0445 12.2409 52.0884L12.676 52.8085L13.3745 53.8645L14.1095 54.8995L14.6295 55.5703C14.8754 55.8978 15.1423 56.218 15.4001 56.5277C15.5013 56.6491 15.6028 56.771 15.7033 56.8936C15.8393 57.0636 15.9879 57.2283 16.1323 57.3875C16.1761 57.4361 16.22 57.4843 16.2635 57.5329C16.3226 57.5989 16.3825 57.6649 16.442 57.7309C16.5718 57.8745 16.7056 58.0232 16.8361 58.1715C17.0824 58.4365 17.3384 58.702 17.586 58.9591C17.7315 59.11 17.8772 59.2612 18.0219 59.4131C19.5352 60.9394 21.2301 62.4407 23.2021 64.0007L23.5408 64.2771L23.8871 64.5396L24.5841 65.0709C24.6667 65.1336 24.7487 65.1974 24.831 65.2612C24.9772 65.3747 25.1284 65.4919 25.2796 65.6021L25.9907 66.117C26.5401 66.5272 27.1101 66.9282 27.6613 67.3159C28.057 67.594 28.4657 67.8816 28.8664 68.1721L29.8774 68.9049L29.8737 68.9046ZM22.8681 65.2257L23.255 65.4425L24.0336 65.8759C24.1246 65.9252 24.2167 65.9763 24.3085 66.0271C24.4727 66.1181 24.6425 66.212 24.8114 66.2991L25.6063 66.6958C25.7104 66.7469 25.8148 66.7988 25.9193 66.8506C26.3363 67.0577 26.7675 67.2716 27.2022 67.4559C27.3187 67.5055 27.4343 67.5556 27.55 67.606C27.5286 67.5908 27.5069 67.5759 27.4855 67.5607C26.9325 67.1716 26.3606 66.7694 25.8098 66.3582L25.0997 65.8443C24.9449 65.7312 24.7919 65.6126 24.6439 65.498C24.5623 65.4349 24.4807 65.3718 24.3991 65.3095L23.35 64.5113L23.011 64.235C21.0314 62.6692 19.3274 61.1599 17.8036 59.6227C17.6571 59.469 17.5121 59.3185 17.367 59.168C17.1179 58.9094 16.8601 58.6422 16.6117 58.3745L16.6088 58.3713C16.4793 58.2237 16.3455 58.0757 16.216 57.9321C16.1562 57.8658 16.0964 57.7998 16.0369 57.7334C15.9934 57.6852 15.9502 57.6369 15.9067 57.5891C15.7595 57.4266 15.6075 57.2584 15.4672 57.0825C15.3686 56.9621 15.2678 56.841 15.1666 56.7199C14.9062 56.4073 14.6368 56.0838 14.388 55.7524L13.8637 55.0757L13.1224 54.0321L12.4179 52.9663L11.9809 52.2425C11.9548 52.1986 11.929 52.1562 11.9033 52.1137C11.8561 52.0365 11.8075 51.9567 11.7622 51.8755L11.3557 51.1354C11.289 51.0182 11.2176 50.8899 11.1534 50.7571L10.7726 50.0036L10.7215 49.8926C10.5068 49.427 10.2845 48.9455 10.0956 48.4584C9.66224 47.4003 9.31049 46.3265 9.05084 45.2702C9.03888 45.2223 9.02655 45.1741 9.01422 45.1262C8.9921 45.0407 8.96889 44.9518 8.94967 44.8626L8.81658 44.249L8.70562 43.6376C8.61859 43.0923 8.5515 42.5382 8.50581 41.987L8.47898 41.571C8.47716 41.5206 8.47535 41.4706 8.47317 41.4202C8.46955 41.3357 8.46592 41.2479 8.46447 41.1613C8.46193 41.0227 8.45976 40.8871 8.46085 40.7475L8.46302 40.5118L8.45867 40.3878V39.8812C8.45867 39.7996 8.46193 39.7187 8.46556 39.6404C8.4681 39.5849 8.47064 39.5291 8.47172 39.4736C8.47571 39.3398 8.48043 39.1983 8.49457 39.0573L8.52757 38.6511C8.5903 38.097 8.68241 37.5527 8.80208 37.0331C8.94967 36.4166 9.0998 35.9144 9.27386 35.4517C10.0604 33.3085 11.3847 31.4493 13.1029 30.0771C13.5873 29.6909 14.0468 29.3758 14.5077 29.1136L14.6941 29.003L14.8816 28.9044C14.9272 28.8808 14.9715 28.8576 15.0154 28.834C15.0959 28.7909 15.1796 28.7466 15.2652 28.7064C15.3287 28.6774 15.3907 28.6487 15.4523 28.6201C15.6467 28.5302 15.8472 28.437 16.0543 28.359C16.2374 28.2796 16.4264 28.215 16.6091 28.153C16.6947 28.124 16.7832 28.0939 16.8691 28.0627L16.8746 28.0609C16.9652 28.0323 17.057 28.0058 17.1458 27.9804C17.1948 27.9663 17.2437 27.9525 17.2927 27.938L17.5095 27.8752L17.7184 27.8256C17.8381 27.7926 17.9592 27.7632 18.0807 27.7367C17.3366 27.744 16.6211 27.8245 15.9415 27.9779C15.89 27.9898 15.8364 28.0011 15.7831 28.0123C15.6866 28.0323 15.5956 28.0515 15.5071 28.078L15.0636 28.2023C14.9729 28.2288 14.8826 28.26 14.7876 28.293C14.7369 28.3108 14.6861 28.3282 14.635 28.3452L14.4221 28.4181L14.2121 28.5022C13.7074 28.6955 13.1874 28.953 12.5741 29.3134C11.5294 29.9422 10.5815 30.7404 9.75725 31.6843C8.95003 32.6057 8.27046 33.6574 7.73704 34.8102C7.49915 35.3218 7.27976 35.8955 7.06654 36.5635C6.89719 37.123 6.75794 37.7232 6.64117 38.3955C6.53093 39.1168 6.474 39.7136 6.4624 40.2706L6.45768 40.3889V40.4922L6.4468 40.6938C6.43882 40.8501 6.43484 41.0108 6.43121 41.1613C6.42903 41.2653 6.42867 41.3716 6.42867 41.4746C6.42867 41.5264 6.42867 41.5786 6.42831 41.6305L6.43882 42.1008C6.46058 42.7746 6.53964 43.4451 6.606 43.9542L6.71297 44.6407L6.84352 45.3253C6.86201 45.4218 6.88486 45.5204 6.90698 45.6158C6.91931 45.6691 6.93164 45.7224 6.94324 45.7761C7.21521 46.9368 7.59126 48.1187 8.06014 49.2867C8.28062 49.8401 8.5399 50.3876 8.79048 50.9174L8.81151 50.962L9.23288 51.779C9.30251 51.9186 9.3783 52.0525 9.44974 52.1768L9.90991 52.9728C9.9585 53.0544 10.0122 53.1382 10.0644 53.2194C10.0938 53.2651 10.1231 53.3108 10.1521 53.3568L10.6442 54.1263L11.1668 54.8748C11.1893 54.9067 11.2121 54.9394 11.2346 54.972C11.2973 55.0623 11.3622 55.1555 11.4286 55.2436L12.2648 56.3221L12.8505 57.0165C13.1264 57.3577 13.4307 57.6819 13.7251 57.9952C13.8372 58.1145 13.9529 58.2375 14.0656 58.3604C14.2216 58.5334 14.3906 58.6998 14.5537 58.8605C14.6016 58.9076 14.6495 58.9547 14.697 59.0019C14.7641 59.0679 14.8315 59.1346 14.8986 59.201C15.0433 59.3438 15.1927 59.4918 15.3414 59.635C15.6293 59.9023 15.9296 60.1703 16.22 60.4296C16.3734 60.5663 16.5264 60.703 16.6787 60.8404C18.444 62.3529 20.399 63.7509 22.4892 64.9958L22.8696 65.2268L22.8681 65.2257Z" fill="#DCD1E0"/>
<path id="Vector_6" d="M23.976 68.9044L22.82 68.4316C22.4566 68.2829 22.0914 68.1241 21.7379 67.9703C21.5544 67.8905 21.3709 67.8108 21.1863 67.7317C20.7435 67.5439 20.3084 67.3277 19.8874 67.1189C19.7833 67.0674 19.6792 67.0155 19.5748 66.9644L18.7774 66.5662C18.6029 66.4763 18.4314 66.3813 18.2653 66.2892C18.1739 66.2388 18.0826 66.188 17.9908 66.1383L16.8159 65.4827L16.4344 65.2513C14.3297 63.9984 12.3603 62.5896 10.5819 61.0655L10.579 61.0629C10.4271 60.9259 10.2741 60.7892 10.121 60.6528C9.82948 60.3924 9.52778 60.123 9.23513 59.8518C9.08247 59.7045 8.93161 59.5555 8.78547 59.4108C8.71911 59.3452 8.65239 59.2792 8.58566 59.2135C8.53816 59.1664 8.49066 59.1196 8.44351 59.0728C8.2767 58.9089 8.10446 58.7392 7.94345 58.5604C7.83248 58.44 7.71717 58.3171 7.60584 58.1985C7.30776 57.8812 6.99953 57.5531 6.71885 57.2057L6.12958 56.5069L5.29009 55.4241C5.21938 55.3301 5.15338 55.2348 5.08919 55.143C5.06671 55.1104 5.04387 55.0781 5.02102 55.0455L4.49303 54.289L3.99877 53.5159C3.96976 53.4699 3.94111 53.4253 3.91246 53.3806C3.85879 53.2972 3.80367 53.2109 3.75145 53.1232L3.28983 52.325C3.21585 52.1974 3.13752 52.0589 3.065 51.9131L2.64145 51.091L2.6186 51.0428C2.36621 50.5093 2.10548 49.9578 1.88174 49.3964C1.40706 48.215 1.02666 47.0187 0.750698 45.8409C0.738731 45.7865 0.726765 45.7346 0.714435 45.6824C0.69159 45.5841 0.668019 45.4826 0.648437 45.3803L0.51644 44.6881L0.408739 43.9951C0.340927 43.4754 0.260786 42.7951 0.238666 42.1076L0.228149 41.6318V41.6296C0.228149 41.5767 0.228512 41.5238 0.228512 41.4712C0.228512 41.3675 0.228512 41.2601 0.23105 41.1535C0.234677 41.0005 0.239028 40.8369 0.247006 40.6774L0.257522 40.4794V40.3793L0.262237 40.2611C0.273841 39.6932 0.331861 39.084 0.444639 38.3464C0.563944 37.6589 0.706095 37.0475 0.879794 36.4738C1.09773 35.7917 1.32148 35.2068 1.5648 34.6831C2.1102 33.5046 2.80572 32.4287 3.63142 31.4862C4.47599 30.5187 5.44783 29.7006 6.52085 29.0548C7.15038 28.6849 7.68417 28.4205 8.20309 28.2218L8.42176 28.1344L8.6397 28.0597C8.69083 28.0427 8.74051 28.0256 8.78983 28.0082C8.88447 27.9756 8.98202 27.9415 9.08138 27.9125L9.52379 27.7885C9.62206 27.7587 9.72396 27.7377 9.82259 27.717C9.87372 27.7065 9.92449 27.696 9.9749 27.684C11.1019 27.4298 12.3218 27.3696 13.6023 27.5056L14.7866 27.6311L13.6081 27.803C13.5428 27.8124 13.4775 27.8218 13.4123 27.8312C12.8854 27.907 12.3875 27.9788 11.8965 28.1141L11.8914 28.1155L11.6836 28.1649L11.478 28.2243C11.429 28.2388 11.379 28.2533 11.329 28.2675C11.243 28.2921 11.1545 28.3175 11.0689 28.3447C10.9808 28.3763 10.892 28.4067 10.806 28.4361C10.6197 28.4996 10.4438 28.5594 10.2712 28.6345L10.2643 28.6374C10.0666 28.7117 9.86973 28.8031 9.67972 28.8912C9.61698 28.9202 9.55425 28.9492 9.49188 28.9779C9.41464 29.0141 9.33848 29.0548 9.25762 29.0979C9.21193 29.1222 9.1666 29.1465 9.12054 29.1701L8.93814 29.2662L8.75937 29.3724C8.30934 29.6284 7.86258 29.9349 7.3908 30.3113C5.71546 31.6494 4.42377 33.4629 3.65572 35.5556C3.48565 36.0074 3.33915 36.4981 3.19482 37.1011C3.07841 37.6074 2.98812 38.1397 2.92647 38.6822L2.89384 39.084C2.88042 39.2185 2.87571 39.3534 2.87208 39.4803C2.87099 39.5369 2.86845 39.5946 2.86591 39.6522C2.86229 39.7309 2.85902 39.8053 2.85902 39.8803V40.384L2.86374 40.5069L2.86156 40.7492C2.86048 40.8848 2.86265 41.0183 2.86519 41.1546C2.86664 41.2376 2.87027 41.3229 2.87389 41.4052C2.87607 41.4559 2.87824 41.5067 2.87969 41.5575L2.90617 41.9636C2.95113 42.5054 3.01713 43.0519 3.10271 43.586L3.21259 44.1916L3.34422 44.7979C3.36235 44.8813 3.38484 44.9673 3.40623 45.0503C3.41892 45.0993 3.43162 45.1482 3.44358 45.1972C3.69996 46.2398 4.04736 47.299 4.47599 48.3463C4.66238 48.8275 4.88286 49.3047 5.09572 49.766L5.14576 49.8744L5.52399 50.6229C5.58563 50.7505 5.65417 50.8734 5.71908 50.9877L6.12631 51.7292C6.16838 51.8039 6.21516 51.8812 6.26085 51.9559C6.28732 51.9998 6.31416 52.0433 6.34026 52.0871L6.77506 52.8073L7.47348 53.8633L8.20853 54.8983L8.72854 55.5691C8.9744 55.8966 9.2413 56.2171 9.49949 56.5268C9.60066 56.6483 9.7022 56.7701 9.80229 56.8923C9.93791 57.0624 10.0869 57.2267 10.2306 57.3859C10.2744 57.4345 10.3187 57.4831 10.3622 57.532C10.4209 57.5973 10.4797 57.6626 10.5388 57.7278C10.669 57.8722 10.8039 58.0212 10.9348 58.1706C11.181 58.4357 11.437 58.7011 11.6847 58.9582C11.8301 59.1091 11.9759 59.2603 12.1206 59.4123C13.6335 60.9386 15.3288 62.4398 17.3007 63.9999L17.6394 64.2762L17.9857 64.5387L18.6827 65.07C18.7654 65.1331 18.8477 65.1969 18.93 65.2607C19.0762 65.3739 19.227 65.491 19.3779 65.6013L20.089 66.1162C20.6384 66.5263 21.2084 66.9274 21.7596 67.315C22.1553 67.5932 22.5639 67.8807 22.9646 68.1712L23.9756 68.9044H23.976ZM16.97 65.2256L17.3573 65.4424L18.1359 65.8758C18.2269 65.9251 18.319 65.9762 18.4111 66.027C18.5754 66.1176 18.7451 66.2119 18.9137 66.299L19.7086 66.6957C19.8127 66.7468 19.9171 66.7987 20.0212 66.8505C20.4382 67.0576 20.8694 67.2715 21.3042 67.4561C21.4206 67.5058 21.5362 67.5558 21.6519 67.6062C21.6305 67.591 21.6091 67.5761 21.5877 67.5609C21.0347 67.1718 20.4629 66.7696 19.912 66.3581L19.202 65.8442C19.0472 65.7311 18.8945 65.6129 18.7465 65.4983C18.6649 65.4348 18.5834 65.3717 18.501 65.3093L17.452 64.5112L17.1129 64.2349C15.1333 62.6687 13.4293 61.1594 11.9055 59.6226C11.759 59.4688 11.614 59.3183 11.4689 59.1678C11.2198 58.9093 10.9623 58.642 10.7136 58.3748L10.7107 58.3715C10.5805 58.2232 10.4463 58.0745 10.3161 57.9302C10.257 57.8646 10.1979 57.7993 10.1388 57.7336C10.0953 57.6851 10.0518 57.6368 10.0079 57.5886C9.86103 57.4261 9.70909 57.2582 9.56875 57.0827C9.47012 56.9623 9.36931 56.8416 9.2685 56.7205C9.00813 56.4079 8.7387 56.0844 8.48957 55.7526L7.96521 55.0759L7.22399 54.0323L6.5194 52.9665L6.08244 52.2427C6.05633 52.1988 6.03022 52.156 6.00411 52.1133C5.95733 52.0364 5.9091 51.9566 5.86341 51.8757L5.4569 51.1356C5.39054 51.0185 5.3191 50.8905 5.25455 50.757L4.87379 50.0035L4.82266 49.8929C4.60762 49.4273 4.38569 48.9457 4.19676 48.4583C3.76342 47.4002 3.41167 46.3264 3.15203 45.2701C3.14042 45.2226 3.12773 45.1747 3.1154 45.1272C3.09292 45.0413 3.07007 44.9524 3.05049 44.8628L2.91741 44.2493L2.80644 43.6379C2.71941 43.0932 2.65233 42.5391 2.60663 41.9872L2.5798 41.5713C2.57799 41.5205 2.57617 41.4697 2.574 41.419C2.57037 41.3348 2.56675 41.2478 2.56529 41.1615C2.56276 41.023 2.56058 40.8873 2.56167 40.7477L2.56384 40.512L2.55949 40.388V39.8818C2.55949 39.8002 2.56276 39.719 2.56638 39.6403C2.56892 39.5848 2.57146 39.5297 2.57255 39.4742C2.57617 39.3407 2.58125 39.1997 2.59539 39.0582L2.62839 38.6521C2.69113 38.0976 2.7836 37.5533 2.9029 37.034C3.05049 36.4176 3.20026 35.9153 3.37468 35.4526C4.16123 33.3095 5.48555 31.4503 7.20369 30.0781C7.6878 29.6919 8.14725 29.3768 8.60851 29.1146L8.7949 29.004L8.98238 28.9053C9.02807 28.8818 9.07231 28.8582 9.11655 28.8346C9.19706 28.7915 9.28046 28.7472 9.36641 28.707C9.42987 28.678 9.49187 28.6493 9.55388 28.6207C9.74789 28.5308 9.94879 28.4376 10.1555 28.3596C10.3386 28.2802 10.5272 28.216 10.7099 28.1536C10.7955 28.1246 10.884 28.0945 10.9703 28.0633L10.9758 28.0615C11.066 28.0329 11.1578 28.0064 11.2466 27.981C11.2956 27.9669 11.3449 27.9527 11.3939 27.9382L11.6107 27.8755L11.8196 27.8258C11.9393 27.7928 12.0604 27.7634 12.1819 27.7366C11.4381 27.7438 10.7223 27.8244 10.0427 27.9777C9.99122 27.9897 9.93755 28.001 9.88424 28.0122C9.78778 28.0321 9.69676 28.0514 9.60828 28.0778L9.16442 28.2022C9.07376 28.2287 8.98383 28.2599 8.88846 28.2929C8.83769 28.3106 8.78692 28.328 8.73579 28.3451L8.52293 28.418L8.3126 28.5021C7.80783 28.6954 7.28782 28.9529 6.67461 29.3133C5.62987 29.9421 4.68196 30.7403 3.85771 31.6842C3.05049 32.6056 2.37093 33.6572 1.8375 34.81C1.59961 35.3221 1.38022 35.8958 1.167 36.5634C0.997649 37.1229 0.858399 37.723 0.741632 38.3954C0.631393 39.1166 0.57446 39.7135 0.562856 40.2705L0.558505 40.3887V40.4921L0.547626 40.6937C0.540011 40.8493 0.535659 41.0103 0.532033 41.1611C0.529857 41.2645 0.529494 41.37 0.529494 41.4723C0.529494 41.5248 0.529494 41.5778 0.529132 41.6304L0.539648 42.1003C0.561406 42.7734 0.640459 43.4442 0.70682 43.9537L0.813796 44.6402L0.944342 45.3248C0.962836 45.4213 0.985682 45.5203 1.0078 45.6157C1.02013 45.669 1.03246 45.7219 1.04407 45.7752C1.31604 46.9364 1.69208 48.1182 2.16096 49.2858C2.38144 49.8388 2.64036 50.3861 2.89057 50.9151L2.91233 50.9608L3.33371 51.7778C3.40369 51.9182 3.47912 52.0516 3.55092 52.1756L4.0111 52.9716C4.06005 53.0536 4.11372 53.1377 4.16594 53.2189C4.19495 53.2642 4.22432 53.3099 4.25297 53.3556L4.74506 54.1251L5.26761 54.8736C5.29045 54.9059 5.3133 54.9389 5.33614 54.9719C5.39888 55.0618 5.46343 55.1546 5.52943 55.2427L6.36565 56.3212L6.9513 57.0156C7.22726 57.3569 7.5315 57.6807 7.82559 57.994C7.93765 58.1133 8.05369 58.2366 8.16647 58.3595C8.3224 58.5325 8.49174 58.699 8.65529 58.86C8.70279 58.9068 8.75066 58.9539 8.79817 59.001C8.86453 59.0663 8.93125 59.1323 8.99798 59.1983C9.14339 59.3419 9.29352 59.4906 9.44256 59.6342C9.73085 59.9018 10.0315 60.1702 10.3223 60.4298C10.4753 60.5661 10.628 60.7029 10.7799 60.8399C12.5452 62.3525 14.4998 63.7504 16.5903 64.9949L16.9707 65.2256H16.97Z" fill="#DCD1E0"/>
<g id="Group_7">
<path id="Vector_7" d="M8.65052 90.5393H6.60021C6.47039 90.5393 6.36124 90.5009 6.27566 90.4254C6.18464 90.3449 6.13823 90.23 6.13823 90.0838V86.2896H2.98698V90.0838C2.98698 90.2615 2.9072 90.3667 2.84047 90.4236C2.75054 90.5005 2.63269 90.5393 2.48981 90.5393H0.448572C0.174425 90.5393 0.00652733 90.3834 0 90.1223V90.1186V83.988H9.12593V90.0838C9.12593 90.2673 9.04832 90.3721 8.98305 90.4272C8.8953 90.5016 8.7836 90.5393 8.65052 90.5393ZM2.68745 85.9894H6.43848V90.0835C6.43848 90.1687 6.46568 90.1923 6.47438 90.2002C6.50412 90.2263 6.54509 90.239 6.60021 90.239H8.65052C8.71144 90.239 8.75677 90.2256 8.78904 90.1984C8.79811 90.1908 8.82603 90.1669 8.82603 90.0835V84.2876H0.299894V90.1161C0.30207 90.1926 0.313674 90.239 0.448572 90.239H2.49017C2.55944 90.239 2.61202 90.2242 2.64647 90.1952C2.66569 90.1788 2.68745 90.1513 2.68745 90.0835V85.9894Z" fill="#DCD1E0"/>
</g>
<g id="Group_8">
<path id="Vector_8" d="M8.65052 98.7366H6.60021C6.47039 98.7366 6.36124 98.6981 6.27566 98.6227C6.18464 98.5422 6.13823 98.4272 6.13823 98.2811V94.4869H2.98698V98.2811C2.98698 98.4588 2.9072 98.564 2.84047 98.6209C2.75054 98.6978 2.63269 98.7366 2.48981 98.7366H0.448572C0.174425 98.7366 0.00652733 98.5806 0 98.3195V98.3159V92.1853H9.12593V98.2811C9.12593 98.4646 9.04832 98.5694 8.98305 98.6245C8.8953 98.6989 8.7836 98.7366 8.65052 98.7366ZM2.68745 94.187H6.43848V98.2811C6.43848 98.3663 6.46568 98.3899 6.47438 98.3979C6.50412 98.424 6.54509 98.4367 6.60021 98.4367H8.65052C8.71144 98.4367 8.75677 98.4233 8.78904 98.3961C8.79811 98.3884 8.82603 98.3645 8.82603 98.2811V92.4852H0.299894V98.3137C0.30207 98.3903 0.313674 98.4367 0.448572 98.4367H2.49017C2.55944 98.4367 2.61202 98.4218 2.64647 98.3928C2.66569 98.3765 2.68745 98.3489 2.68745 98.2811V94.187Z" fill="#DCD1E0"/>
</g>
</g>
</g>
</g>
</g>
<defs>
<clipPath id="clip0_130_369">
<rect width="127" height="98.8894" fill="white"/>
</clipPath>
</defs>
</svg>
