<svg width="127" height="129" viewBox="0 0 127 129" fill="none" xmlns="http://www.w3.org/2000/svg">
<g id="Asset 5 1" clip-path="url(#clip0_130_324)">
<g id="Layer 1">
<g id="Group">
<g id="Group_2">
<g id="Group_3">
<path id="Vector" d="M69.9303 36.2691C71.121 35.0783 71.121 33.1477 69.9303 31.957C68.7395 30.7663 66.8089 30.7663 65.6182 31.957C64.4274 33.1477 64.4274 35.0783 65.6182 36.2691C66.8089 37.4598 68.7395 37.4598 69.9303 36.2691Z" fill="#7B92AD"/>
<path id="Vector_2" d="M65.1518 24.1212C65.81 25.5021 66.6837 28.097 67.2709 30.2967C67.2388 28.0208 67.3766 25.2914 67.6429 23.7845C68.1276 21.0426 68.7019 19.128 69.3546 17.8621H60.7156C61.9834 18.6102 63.4346 20.52 65.1515 24.1212H65.1518Z" fill="#7B92AD"/>
<path id="Vector_3" d="M6.03373 33.7329C3.99499 32.0069 2.40488 30.4812 1.20447 29.1265V37.1636C2.22402 37.1927 3.33125 37.2557 4.53166 37.3551C6.90927 37.5522 11.0932 38.4122 14.5191 39.3478C11.4262 37.6037 7.8559 35.2755 6.0341 33.7329H6.03373Z" fill="#7B92AD"/>
<path id="Vector_4" d="M23.4209 45.0287C25.2782 43.1714 25.2782 40.1601 23.4209 38.3028C21.5636 36.4455 18.5523 36.4455 16.6949 38.3028C14.8376 40.1601 14.8376 43.1714 16.6949 45.0287C18.5523 46.8861 21.5636 46.8861 23.4209 45.0287Z" fill="#7B92AD"/>
<path id="Vector_5" d="M11.4855 91.2041C9.20953 91.2361 6.48016 91.0984 4.97329 90.832C3.48153 90.5683 2.23544 90.2781 1.20447 89.9631V95.6425C2.21592 94.9257 3.56367 94.1555 5.30995 93.3235C6.69085 92.6653 9.28578 91.7916 11.4855 91.2044V91.2041Z" fill="#7B92AD"/>
<path id="Vector_6" d="M71.5413 87.7147C73.622 85.634 73.6221 82.2605 71.5413 80.1798C69.4606 78.0991 66.0871 78.0991 64.0064 80.1798C61.9257 82.2605 61.9257 85.634 64.0064 87.7147C66.0871 89.7954 69.4606 89.7954 71.5413 87.7147Z" fill="#7B92AD"/>
<path id="Vector_7" d="M72.099 107.06C71.4522 105.578 70.7977 103.848 70.135 101.844C69.296 99.3059 68.3486 94.6159 67.8116 90.6736C67.3692 94.6266 66.5338 99.328 65.7422 101.883C65.1279 103.865 64.5186 105.582 63.9124 107.06H72.0994H72.099Z" fill="#7B92AD"/>
<path id="Vector_8" d="M15.3022 93.75C16.9862 93.75 18.3513 92.3849 18.3513 90.7009C18.3513 89.017 16.9862 87.6519 15.3022 87.6519C13.6182 87.6519 12.2531 89.017 12.2531 90.7009C12.2531 92.3849 13.6182 93.75 15.3022 93.75Z" fill="#7B92AD"/>
<path id="Vector_9" d="M110.319 99.6206C110.83 98.1789 112.047 95.7262 113.187 93.7552C111.601 95.3873 109.573 97.2198 108.319 98.0972C102.775 101.975 100.311 102.029 99.227 100.168C98.1872 98.3826 99.4307 96.2345 105.538 93.3231C106.919 92.6649 109.514 91.7912 111.714 91.2041C109.438 91.2361 106.709 91.0984 105.202 90.8321C98.5394 89.6538 96.7592 87.9495 97.3084 85.8669C97.8351 83.8694 100.234 83.2296 106.611 85.4901C108.053 86.001 110.506 87.2183 112.476 88.3583C110.844 86.7715 109.012 84.7446 108.135 83.4904C104.256 77.9462 104.203 75.4824 106.064 74.398C107.849 73.3582 109.997 74.6017 112.908 80.7094C113.566 82.0903 114.44 84.6853 115.027 86.885C114.995 84.609 115.133 81.8796 115.399 80.3728C116.578 73.7103 118.282 71.9301 120.364 72.4793C122.362 73.006 123.002 75.4047 120.741 81.782C120.23 83.2237 119.013 85.6765 117.873 87.6474C119.46 86.0153 121.487 84.1829 122.741 83.3055C123.841 82.536 124.819 81.9176 125.69 81.4343V57.6968C123.781 56.9285 121.359 55.4356 118.286 53.0245C116.53 51.6469 113.704 48.8221 111.51 46.3281C113.028 49.2822 114.619 52.9383 115.248 55.0809C118.03 64.5531 116.957 67.9852 113.879 68.6184C110.927 69.2254 108.535 66.506 107.352 56.7049C107.084 54.489 107.084 50.494 107.296 47.1786C106.28 50.3412 104.82 54.051 103.75 56.011C99.0197 64.6761 95.8343 66.3447 93.2099 64.6153C90.6927 62.9571 90.9247 59.3426 97.0185 51.5755C98.3961 49.8196 101.221 46.9941 103.715 44.7995C100.761 46.3178 97.1047 47.9087 94.9621 48.5378C85.4899 51.3202 82.0578 50.2472 81.4246 47.169C80.8176 44.2164 83.537 41.8248 93.3381 40.6417C95.554 40.3743 99.549 40.374 102.864 40.5858C99.7018 39.5702 95.9919 38.1102 94.032 37.0401C85.3669 32.3096 83.6983 29.1242 85.4273 26.4998C87.0855 23.9826 90.7 24.2146 98.4672 30.3084C100.223 31.686 103.049 34.5108 105.243 37.0048C103.725 34.0507 102.134 30.3946 101.505 28.252C100.045 23.2813 99.6469 19.9744 100.043 17.8619H74.326C74.6052 19.3084 74.2479 21.6293 72.9849 25.1933C72.474 26.635 71.2566 29.0877 70.1166 31.0587C71.7034 29.4266 73.7304 27.5941 74.9846 26.7168C80.5288 22.8385 82.9926 22.7851 84.077 24.6463C85.1168 26.4313 83.8733 28.5794 77.7655 31.4908C76.3846 32.149 73.7897 33.0227 71.59 33.6098C73.8659 33.5778 76.5953 33.7155 78.1022 33.9818C84.7647 35.1602 86.5448 36.8644 85.9956 38.947C85.4689 40.9445 83.0703 41.5843 76.6929 39.3238C75.2512 38.8129 72.7985 37.5956 70.8275 36.4556C72.4596 38.0424 74.2921 40.0697 75.1695 41.3235C79.0477 46.8677 79.1011 49.3315 77.2399 50.4159C75.4549 51.4557 73.3068 50.2122 70.3955 44.1045C69.7372 42.7236 68.8635 40.1286 68.2764 37.9289C68.3085 40.2049 68.1707 42.9343 67.9044 44.4411C66.7261 51.1036 65.0218 52.8838 62.9392 52.3346C60.9417 51.8079 60.3019 49.4093 62.5624 43.0319C63.0733 41.5902 64.2906 39.1375 65.4306 37.1665C63.8439 38.7986 61.8165 40.6311 60.5627 41.5084C55.0185 45.3867 52.5547 45.4401 51.4703 43.5789C50.4305 41.7939 51.674 39.6458 57.7818 36.7344C59.1627 36.0762 61.7576 35.2025 63.9573 34.6154C61.6813 34.6474 58.952 34.5097 57.4451 34.2434C50.7826 33.065 49.0025 31.3608 49.5516 29.2782C50.0784 27.2807 52.477 26.6409 58.8544 28.9014C60.296 29.4123 62.7488 30.6296 64.7198 31.7696C63.0877 30.1828 61.2552 28.1559 60.3778 26.9017C56.5607 21.4444 56.4488 18.9717 58.2208 17.8616H24.3644C24.6395 19.9187 24.6594 22.6308 24.3684 26.1396C24.1714 28.5172 23.3113 32.7011 22.3757 36.127C24.1198 33.0341 26.4481 29.4638 27.9907 27.6417C34.8101 19.5869 38.5048 18.5257 40.8803 20.9015C43.1588 23.18 42.1378 26.9146 34.0844 33.7354C32.2637 35.2773 28.6975 37.6276 25.6134 39.3887C29.0338 38.435 33.2045 37.5566 35.5836 37.3591C46.1011 36.4854 49.464 38.3477 49.464 41.7073C49.464 45.0669 46.1014 46.8486 35.5836 45.9767C33.206 45.7797 29.022 44.9196 25.5961 43.984C28.689 45.7281 32.2593 48.0564 34.0815 49.599C42.1363 56.4183 43.1975 60.1131 40.8217 62.4885C38.5432 64.7671 34.8086 63.746 27.9877 55.6924C26.4459 53.8717 24.0955 50.3054 22.3345 47.2213C23.2881 50.6417 24.1666 54.8124 24.364 57.1915C25.2377 67.709 23.3754 71.0719 20.0158 71.0719C16.6562 71.0719 14.8746 67.7094 15.7464 57.1915C15.9435 54.8139 16.8035 50.6299 17.7391 47.204C15.995 50.297 13.6668 53.8672 12.1242 55.6894C6.9461 61.8056 3.56993 63.8893 1.20447 63.4982V84.1331C2.53122 84.2945 4.22999 84.7265 6.38255 85.4893C7.82422 86.0002 10.277 87.2176 12.2479 88.3576C10.6158 86.7708 8.78337 84.7438 7.90636 83.4896C4.02814 77.9454 3.97473 75.4816 5.83557 74.3972C7.62053 73.3574 9.76867 74.6009 12.68 80.7087C13.3382 82.0896 14.2119 84.6845 14.799 86.8842C14.7674 84.6083 14.9048 81.8789 15.1711 80.372C16.3494 73.7096 18.0537 71.9294 20.1362 72.4786C22.1337 73.0053 22.7735 75.4039 20.5131 81.7813C20.0022 83.223 18.7848 85.6757 17.6448 87.6467C19.2316 86.0146 21.2586 84.1821 22.5128 83.3047C28.057 79.4265 30.5208 79.3731 31.6052 81.2339C32.645 83.0189 31.4015 85.1671 25.2937 88.0784C23.9128 88.7366 21.3179 89.6103 19.1182 90.1974C21.3941 90.1654 24.1235 90.3031 25.6304 90.5694C32.2928 91.7478 34.073 93.452 33.5238 95.5346C32.9971 97.5321 30.5985 98.1719 24.2211 95.9114C22.7794 95.4006 20.3267 94.1832 18.3557 93.0432C19.9878 94.63 21.8203 96.6573 22.6977 97.9111C26.5759 103.455 26.6293 105.919 24.7681 107.004C24.7346 107.023 24.701 107.041 24.6672 107.06H53.2766C53.838 104.777 54.9662 101.892 56.788 98.2706C57.9891 95.8827 60.636 91.8966 63.0435 88.7292C59.9354 91.2115 56.02 93.9456 53.6542 95.1921C43.1938 100.703 38.9104 100.257 37.4378 96.7936C36.0252 93.4716 38.6511 90.0191 49.8769 86.3074C52.4147 85.4683 57.1048 84.521 61.0471 83.984C57.0941 83.5416 52.3926 82.7062 49.8378 81.9146C38.5446 78.4151 35.8307 75.0709 37.2389 71.5802C38.5892 68.2324 42.887 67.6478 53.4494 72.9611C55.8373 74.1622 59.8235 76.8087 62.9908 79.2166C60.5086 76.1085 57.7744 72.1935 56.5279 69.8273C51.0169 59.3669 51.4629 55.0835 54.9264 53.6109C58.2484 52.1983 61.7009 54.8242 65.4126 66.0496C66.2517 68.5875 67.199 73.2775 67.7361 77.2198C68.1784 73.2668 69.0138 68.5654 69.8054 66.0106C73.305 54.717 76.6491 52.0035 80.1398 53.4116C83.4876 54.7619 84.0722 59.0597 78.7589 69.6221C77.5578 72.0101 74.9113 75.9962 72.5035 79.1635C75.6115 76.6813 79.5265 73.9471 81.8927 72.7007C92.3531 67.1896 96.6365 67.6357 98.1091 71.0992C99.5217 74.4212 96.8958 77.8736 85.6704 81.5853C83.1326 82.4244 78.4425 83.3718 74.5002 83.9088C78.4532 84.3512 83.1547 85.1866 85.7094 85.9781C97.003 89.4777 99.7166 92.8218 98.3084 96.3126C96.9581 99.6604 92.6603 100.245 82.0979 94.9317C79.71 93.7305 75.7238 91.084 72.5565 88.6762C75.0387 91.7842 77.7729 95.6993 79.0193 98.0655C80.9866 101.8 82.1944 104.746 82.7771 107.059H109C108.681 105.621 109.024 103.274 110.319 99.6195L110.319 99.6206Z" fill="#7B92AD"/>
<path id="Vector_10" d="M17.9244 100.693C17.2661 99.312 16.3925 96.717 15.8053 94.5173C15.8374 96.7933 15.6996 99.5227 15.4333 101.03C14.9346 103.85 14.3412 105.796 13.6649 107.06H22.558C21.2435 106.399 19.7311 104.483 17.9244 100.693Z" fill="#7B92AD"/>
<path id="Vector_11" d="M1.20447 46.1668V54.2112C2.40267 52.8532 3.99094 51.3238 6.03079 49.5963C7.85148 48.0545 11.4177 45.7041 14.5018 43.9431C11.0814 44.8967 6.91074 45.7752 4.53166 45.9727C3.33125 46.0725 2.22439 46.1362 1.20447 46.1668Z" fill="#7B92AD"/>
<path id="Vector_12" d="M12.1275 27.6392C13.6694 29.4599 16.0197 33.0261 17.7807 36.1102C16.8271 32.6898 15.9486 28.5192 15.7512 26.1401C15.4598 22.6313 15.4727 19.9189 15.7442 17.8621H1.20447V19.8253C3.53899 19.4581 6.94095 21.5156 12.1275 27.6392Z" fill="#7B92AD"/>
<path id="Vector_13" d="M113.889 42.7465C117.051 43.762 120.761 45.2221 122.721 46.2921C123.821 46.8929 124.809 47.4686 125.691 48.0215V42.3745C124.978 42.4876 124.221 42.5933 123.415 42.6905C121.199 42.958 117.204 42.9583 113.888 42.7465H113.889Z" fill="#7B92AD"/>
<path id="Vector_14" d="M109.402 26.628C109.669 28.8439 109.669 32.8389 109.458 36.1543C110.473 32.9917 111.933 29.2819 113.003 27.3219C117.734 18.6568 120.919 16.9882 123.543 18.7172C126.06 20.3755 125.828 23.99 119.735 31.7571C118.357 33.5129 115.532 36.3385 113.038 38.533C115.992 37.0147 119.648 35.4239 121.791 34.7948C123.226 34.3734 124.521 34.0408 125.691 33.7899V17.8623H107.371C108.222 19.7589 108.914 22.5936 109.401 26.6284L109.402 26.628Z" fill="#7B92AD"/>
<path id="Vector_15" d="M10.091 99.6205C10.6018 98.1789 11.8192 95.7261 12.9592 93.7551C11.3724 95.3872 9.34508 97.2197 8.09126 98.0971C4.86352 100.355 2.68002 101.316 1.20483 101.358V107.06H8.77232C8.45334 105.622 8.79589 103.275 10.091 99.6205Z" fill="#7B92AD"/>
<path id="Vector_16" d="M124.997 107.004C124.964 107.024 124.93 107.042 124.896 107.06H125.691V106.427C125.505 106.653 125.272 106.844 124.997 107.004Z" fill="#7B92AD"/>
<path id="Vector_17" d="M109.127 46.0474C111.549 45.6334 113.177 43.3345 112.763 40.9126C112.349 38.4908 110.05 36.8631 107.628 37.277C105.206 37.691 103.579 39.9899 103.992 42.4118C104.406 44.8336 106.705 46.4614 109.127 46.0474Z" fill="#7B92AD"/>
<path id="Vector_18" d="M125.691 90.5419V87.9978C125.635 88.0247 125.579 88.0516 125.522 88.0788C124.141 88.7371 121.546 89.6107 119.347 90.1979C121.54 90.1673 124.155 90.2936 125.691 90.5415V90.5419Z" fill="#7B92AD"/>
<path id="Vector_19" d="M117.064 93.3432C118.519 92.4956 119.011 90.6289 118.164 89.1738C117.316 87.7187 115.45 87.2261 113.994 88.0737C112.539 88.9213 112.047 90.788 112.894 92.2431C113.742 93.6982 115.609 94.1907 117.064 93.3432Z" fill="#7B92AD"/>
<path id="Vector_20" d="M118.153 100.693C117.494 99.312 116.621 96.717 116.033 94.5173C116.066 96.7933 115.928 99.5227 115.661 101.03C115.163 103.85 114.569 105.796 113.893 107.06H122.786C121.472 106.399 119.959 104.483 118.153 100.693Z" fill="#7B92AD"/>
<path id="Vector_21" d="M125.691 96.3314C125.295 96.2043 124.882 96.065 124.45 95.9122C123.008 95.4013 120.555 94.1839 118.584 93.0439C120.216 94.6307 122.049 96.6581 122.926 97.9119C124.299 99.8736 125.191 101.449 125.691 102.715V96.3317V96.3314Z" fill="#7B92AD"/>
</g>
<g id="Group_4">
<path id="Vector_22" d="M6.51883 8.84539C6.51883 9.19495 6.64774 9.83401 6.90668 10.7633C7.16526 11.6926 7.36784 12.2551 7.51444 12.4507C7.66104 12.6466 7.81832 12.8422 7.98591 13.0374C8.1955 13.2754 8.32147 13.506 8.36309 13.7292C8.40508 14.0087 8.42607 14.2603 8.42607 14.4839C8.42607 15.099 8.20249 15.5318 7.75533 15.7834C7.39178 15.979 6.74204 16.0979 5.80609 16.1396C5.37293 16.1952 4.42962 16.2236 2.97653 16.2236C2.41739 16.2236 1.84463 16.1116 1.25787 15.888C0.740724 15.7064 0.398538 15.4478 0.230945 15.1123C0.0769803 14.8747 0.000366211 14.5955 0.000366211 14.2739V13.8758C0.000366211 13.6942 0.0909771 13.5056 0.272936 13.31C0.426532 13.1564 0.587495 12.9954 0.755089 12.8279C1.17426 11.2348 1.47445 9.75371 1.65641 8.38424C1.81001 7.2807 1.91498 6.2744 1.97097 5.36572C2.05495 4.03823 1.86599 3.1859 1.4052 2.80835C1.2796 2.73874 1.10464 2.63376 0.88106 2.49379C0.713467 2.3262 0.629486 2.08862 0.629486 1.78106C0.629486 1.2083 0.992666 0.782131 1.71939 0.502563C2.30616 0.264986 3.04688 0.153379 3.9412 0.167008C5.46428 0.195001 6.44258 0.411584 6.87574 0.816754C7.53249 1.24992 8.12625 2.28384 8.65739 3.91889C9.24415 5.67954 9.81728 6.83243 10.376 7.37757C10.5156 7.50317 10.6696 7.53853 10.8372 7.48255C11.0048 7.27296 11.0888 6.96577 11.0888 6.56023C11.0888 6.40664 11.0678 6.16906 11.0258 5.8475V5.74252L11.0048 5.70053C10.9628 5.36498 10.9138 5.0088 10.8582 4.63162C10.6203 3.84927 10.2361 3.24115 9.70531 2.80798C9.57971 2.73837 9.40475 2.63339 9.18116 2.49342C9.0272 2.32583 8.95059 2.08825 8.95059 1.78069C8.95059 1.20793 9.31377 0.781762 10.0405 0.502194C10.6273 0.264617 11.368 0.153011 12.2623 0.16664C13.4918 0.180636 14.3651 0.327603 14.8823 0.606802C15.3015 0.830383 15.511 1.17257 15.511 1.63373C15.511 1.91329 15.448 2.11588 15.3224 2.24148C15.1968 2.36708 15.0639 2.48606 14.9243 2.59766C14.7843 2.70964 14.6727 2.86323 14.5887 3.05882C14.4211 3.35239 14.2532 3.65295 14.0856 3.96014C13.834 4.47729 13.7084 5.05742 13.7084 5.6998C13.7084 5.6718 13.7084 5.76278 13.7084 5.97237C13.7364 6.74109 13.9526 7.90061 14.3581 9.45168C14.7353 10.9331 14.9239 12.086 14.9239 12.9104C14.9239 14.0003 14.8329 14.755 14.6513 15.1742C14.3578 15.8313 13.75 16.1595 12.8277 16.1595C11.8074 16.1595 10.8851 15.4961 10.0608 14.1682C9.85117 13.819 9.27804 12.5892 8.34209 10.479C7.75533 9.15148 7.22382 8.48774 6.74904 8.48774C6.59507 8.48774 6.51846 8.60671 6.51846 8.84392L6.51883 8.84539Z" fill="#7B92AD"/>
<path id="Vector_23" d="M17.6699 4.18677C17.5859 3.46114 17.4183 3.00036 17.1667 2.80514C17.0411 2.73589 16.8662 2.63091 16.6426 2.49131C16.475 2.32409 16.391 2.08688 16.391 1.77969C16.391 1.20766 16.7542 0.781861 17.4809 0.502662C18.0817 0.265453 18.8224 0.153847 19.7027 0.167475C19.8703 0.167475 20.1252 0.181472 20.4678 0.209466C20.81 0.237459 21.0722 0.251456 21.2538 0.251456C21.7286 0.251456 22.5043 0.216832 23.5806 0.14648C24.6565 0.0768643 25.4179 0.0415039 25.8654 0.0415039C26.4661 0.0415039 26.9343 0.418681 27.2698 1.1734C27.5214 1.76016 27.647 2.39628 27.647 3.08065C27.647 3.51382 27.563 3.877 27.3955 4.17056C27.1719 4.53411 26.8643 4.7157 26.4731 4.7157C26.082 4.7157 25.7744 4.54111 25.5088 4.19156C25.1173 3.67478 24.8171 3.34622 24.6075 3.20626C24.0904 2.84308 23.329 2.66112 22.3227 2.66112H21.8616C21.7216 2.7171 21.6236 2.8847 21.568 3.16426C21.54 3.26224 21.526 3.36022 21.526 3.45783C21.526 3.91899 21.7566 4.29616 22.2177 4.58973C22.6229 4.8413 23.1051 4.96691 23.6642 4.96691C23.7758 4.96691 23.9121 4.89029 24.0731 4.73633C24.2336 4.58273 24.3699 4.50575 24.4819 4.50575C24.6915 4.50575 24.7965 4.65971 24.7965 4.96691C24.7965 5.45606 24.7335 5.92421 24.6079 6.37137C24.4263 7.00013 24.1604 7.31469 23.8115 7.31469C23.588 7.31469 23.3747 7.14009 23.1721 6.79054C22.9695 6.44136 22.6723 6.2664 22.2811 6.2664C21.8336 6.2664 21.6104 6.63695 21.6104 7.3773C21.6104 9.12432 22.6233 9.99728 24.6495 9.99728C24.7335 9.99728 24.8661 9.97629 25.0477 9.9343C25.2293 9.89231 25.3689 9.88568 25.4668 9.9133C25.5645 9.9273 25.6484 9.9343 25.7184 9.9343C26.0676 9.9343 26.3578 9.7667 26.5884 9.43115C26.819 9.09559 27.0039 8.928 27.1439 8.928C27.3535 8.928 27.5351 9.06797 27.689 9.34717C27.8426 9.62674 27.9196 9.88531 27.9196 10.1229C27.9196 10.2629 27.9369 10.6227 27.9719 11.2025C28.0065 11.7826 28.0242 12.2611 28.0242 12.6383C28.0242 14.3433 27.6747 15.4468 26.9763 15.95C26.7107 16.1316 25.8234 16.2225 24.3143 16.2225H22.5957C21.9945 16.2362 21.4078 16.2362 20.835 16.2225L16.8945 16.2016C16.1818 16.1876 15.8256 15.8457 15.8256 15.1757C15.8256 14.9109 15.9306 14.6737 16.1402 14.4641C16.4894 14.1153 16.6853 13.8991 16.7269 13.8155L17.1251 13.1874C17.3207 12.8666 17.4397 12.0714 17.4813 10.8014L17.6489 5.40044C17.6769 4.94002 17.6835 4.53558 17.6699 4.1864V4.18677Z" fill="#7B92AD"/>
<path id="Vector_24" d="M30.162 4.19195C29.9105 3.47921 29.6519 3.01806 29.3863 2.80847C29.2607 2.73886 29.0858 2.63388 28.8622 2.49391C28.6946 2.32632 28.6106 2.08874 28.6106 1.78118C28.6106 1.20842 28.9738 0.78225 29.7005 0.502683C30.3013 0.265105 31.042 0.153499 31.9223 0.167128C33.1658 0.181125 34.0395 0.328091 34.5423 0.60729C34.9751 0.830871 35.192 1.17306 35.192 1.63421C35.192 1.77418 35.1817 1.88947 35.1607 1.98008C35.1397 2.07106 35.0351 2.26297 34.8462 2.55653C34.6576 2.85009 34.5769 3.23464 34.6053 3.70942C34.6329 4.24057 34.8204 4.9603 35.1681 5.86825C35.5567 6.86055 35.932 7.44031 36.293 7.6079C36.7792 7.46904 37.2164 6.85797 37.6058 5.77395C37.9391 4.84316 38.106 4.04387 38.106 3.37682C38.106 3.0571 37.952 2.814 37.6448 2.64751C37.3372 2.48065 37.1836 2.20256 37.1836 1.81359C37.1836 0.71595 38.2246 0.16676 40.3068 0.16676C40.9215 0.16676 41.4667 0.264369 41.9418 0.459587C42.5706 0.724053 42.8921 1.12849 42.9061 1.67215C42.9061 2.06259 42.7175 2.41104 42.3404 2.71749C41.8652 3.09393 41.5926 3.3584 41.523 3.51163C41.0199 4.54334 40.3071 6.69664 39.3852 9.97189C38.5605 12.9267 37.9181 14.7245 37.4569 15.3658C37.2754 15.6167 36.9398 15.8259 36.451 15.9931C36.0738 16.1183 35.7453 16.1809 35.4657 16.1809C34.613 16.1809 33.8377 15.4262 33.1389 13.9171C32.6778 12.9112 32.1886 11.3881 31.6718 9.34756C31.1267 7.22373 30.7985 6.02184 30.6865 5.74228L30.1624 4.19121L30.162 4.19195Z" fill="#7B92AD"/>
<path id="Vector_25" d="M44.9603 4.18677C44.8763 3.46114 44.7087 3.00036 44.4571 2.80514C44.3315 2.73589 44.1566 2.63091 43.933 2.49131C43.7654 2.32409 43.6814 2.08688 43.6814 1.77969C43.6814 1.20766 44.0446 0.781861 44.7713 0.502662C45.3721 0.265453 46.1128 0.153847 46.9931 0.167475C47.1607 0.167475 47.4156 0.181472 47.7582 0.209466C48.1004 0.237459 48.3626 0.251456 48.5442 0.251456C49.019 0.251456 49.7947 0.216832 50.871 0.14648C51.9469 0.0768643 52.7083 0.0415039 53.1558 0.0415039C53.7565 0.0415039 54.2247 0.418681 54.5603 1.1734C54.8118 1.76016 54.9374 2.39628 54.9374 3.08065C54.9374 3.51382 54.8535 3.877 54.6859 4.17056C54.4623 4.53411 54.1547 4.7157 53.7635 4.7157C53.3724 4.7157 53.0648 4.54111 52.7992 4.19156C52.4077 3.67478 52.1075 3.34622 51.8979 3.20626C51.3808 2.84308 50.6194 2.66112 49.6131 2.66112H49.152C49.012 2.7171 48.914 2.8847 48.8584 3.16426C48.8304 3.26224 48.8164 3.36022 48.8164 3.45783C48.8164 3.91899 49.047 4.29616 49.5081 4.58973C49.9133 4.8413 50.3955 4.96691 50.9546 4.96691C51.0662 4.96691 51.2025 4.89029 51.3635 4.73633C51.5241 4.58273 51.6603 4.50575 51.7723 4.50575C51.9819 4.50575 52.0869 4.65971 52.0869 4.96691C52.0869 5.45606 52.0239 5.92421 51.8983 6.37137C51.7167 7.00013 51.4508 7.31469 51.1019 7.31469C50.8784 7.31469 50.6651 7.14009 50.4625 6.79054C50.2599 6.44136 49.9627 6.2664 49.5715 6.2664C49.124 6.2664 48.9008 6.63695 48.9008 7.3773C48.9008 9.12432 49.9137 9.99728 51.9399 9.99728C52.0239 9.99728 52.1565 9.97629 52.3381 9.9343C52.5197 9.89231 52.6593 9.88568 52.7572 9.9133C52.8549 9.9273 52.9388 9.9343 53.0088 9.9343C53.358 9.9343 53.6483 9.7667 53.8788 9.43115C54.1094 9.09559 54.2943 8.928 54.4343 8.928C54.6439 8.928 54.8255 9.06797 54.9794 9.34717C55.133 9.62674 55.21 9.88531 55.21 10.1229C55.21 10.2629 55.2273 10.6227 55.2623 11.2025C55.2969 11.7826 55.3146 12.2611 55.3146 12.6383C55.3146 14.3433 54.9651 15.4468 54.2667 15.95C54.0011 16.1316 53.1138 16.2225 51.6047 16.2225H49.8861C49.2849 16.2362 48.6982 16.2362 48.1254 16.2225L44.1849 16.2016C43.4722 16.1876 43.116 15.8457 43.116 15.1757C43.116 14.9109 43.221 14.6737 43.4306 14.4641C43.7798 14.1153 43.9757 13.8991 44.0173 13.8155L44.4155 13.1874C44.6111 12.8666 44.7301 12.0714 44.7717 10.8014L44.9393 5.40044C44.9673 4.94002 44.9739 4.53558 44.9603 4.1864V4.18677Z" fill="#7B92AD"/>
<path id="Vector_26" d="M61.8754 8.82452C62.169 10.8087 62.4692 12.0106 62.7767 12.4298C62.9583 12.6258 63.1469 12.8353 63.3429 13.0585C63.5385 13.2821 63.6364 13.5061 63.6364 13.7293C63.6364 14.8752 63.3499 15.5809 62.7771 15.8465C62.3296 16.0561 61.1351 16.1611 59.1928 16.1611C57.5998 16.1611 56.5412 16.0108 56.0174 15.7102C55.4936 15.4096 55.2524 14.7986 55.2943 13.8763C55.3083 13.6667 55.4409 13.4361 55.6925 13.1845C55.9997 12.8773 56.1817 12.6747 56.2377 12.5768C56.4332 12.1856 56.6705 11.1723 56.9504 9.53762C57.202 8.07053 57.3905 6.68006 57.5162 5.36657C57.4742 3.9411 57.2856 3.08914 56.9504 2.8092C56.8248 2.73959 56.6498 2.63461 56.4262 2.49464C56.2587 2.32705 56.1747 2.08947 56.1747 1.78191C56.1747 1.20915 56.5379 0.782983 57.2646 0.503415C57.8513 0.265838 58.5921 0.154232 59.4864 0.16786H62.7145C63.874 0.16786 64.8943 0.398071 65.7746 0.857755C66.8645 1.41505 67.4097 2.22392 67.4097 3.28289C67.4097 4.60706 66.6969 5.6594 65.2719 6.4399C65.4115 6.87233 65.712 7.19241 66.1732 7.40163C66.8575 7.70845 67.2071 7.86168 67.2211 7.86168C67.7939 8.33573 68.22 8.83041 68.4996 9.34608C68.7512 9.80577 68.9608 10.426 69.1283 11.2066C69.3659 12.3635 69.7221 13.3462 70.1973 14.1544C70.2253 14.21 70.4068 14.4122 70.7424 14.7606C70.994 15.0255 71.1196 15.2487 71.1196 15.4299C71.1196 15.5695 71.0006 15.7087 70.7634 15.848C70.5958 15.9456 70.4278 16.0502 70.2602 16.1614C70.0087 16.175 69.5965 16.231 69.0237 16.3286C68.5486 16.4123 68.1434 16.4542 67.8079 16.4542C66.3544 16.4542 65.3555 15.8815 64.8107 14.7356C64.5451 14.1768 64.2936 12.9959 64.056 11.1933C63.8464 9.68421 63.4902 8.70628 62.9871 8.25875C62.8195 8.11915 62.6165 8.07716 62.3793 8.13315C61.9878 8.23112 61.8202 8.4617 61.8762 8.82488L61.8754 8.82452ZM61.9384 2.36831C61.7568 2.36831 61.5925 2.43424 61.4459 2.565C61.2993 2.69613 61.2397 2.85119 61.2677 3.03058L61.4353 5.16251C61.4633 5.52164 61.5889 5.70065 61.8124 5.70065C62.2316 5.70065 62.5672 5.50064 62.8184 5.10026C63.0416 4.7415 63.1539 4.34149 63.1539 3.89948C63.1539 2.87845 62.7484 2.36757 61.938 2.36757L61.9384 2.36831Z" fill="#7B92AD"/>
<path id="Vector_27" d="M81.201 10.4383C82.1653 10.4383 82.6475 9.97567 82.6475 9.0493C82.6475 8.74063 82.3259 8.31263 81.6832 7.76528C80.7188 6.92363 80.1391 6.39065 79.9435 6.16596C79.3007 5.45028 78.9792 4.7346 78.9792 4.01929C78.9792 2.74264 79.4893 1.73266 80.5093 0.988985C81.4176 0.329662 82.5285 0 83.842 0C84.2611 0 84.8656 0.0806658 85.6549 0.240892C86.4443 0.401856 87.0557 0.481785 87.4889 0.481785C88.2436 0.481785 88.6208 1.34848 88.6208 3.08077C88.6208 4.07307 88.2292 4.56885 87.4469 4.56885C86.9018 4.56885 86.3813 4.16736 85.8855 3.36365C85.3894 2.56031 84.9109 2.15845 84.4497 2.15845C83.4294 2.15845 82.9197 2.52974 82.9197 3.27267C82.9197 3.70731 83.4924 4.19794 84.6383 4.74455C86.1894 5.47312 87.2443 6.08272 87.8034 6.57334C88.949 7.56859 89.5221 8.84414 89.5221 10.3996C89.5221 12.0954 88.9736 13.49 87.8767 14.5832C86.7795 15.6764 85.393 16.223 83.716 16.223C82.039 16.223 80.5999 15.8024 79.524 14.9611C78.3361 14.0498 77.7423 12.7533 77.7423 11.0707C77.7423 10.2298 78.1751 9.80881 79.0418 9.80881C79.321 9.80881 79.6109 9.91379 79.9118 10.1234C80.212 10.333 80.6419 10.4379 81.201 10.4379V10.4383Z" fill="#7B92AD"/>
<path id="Vector_28" d="M97.76 6.45584C97.8996 7.68572 98.0882 8.88724 98.3261 10.0611C98.5777 11.389 98.7943 12.1783 98.9759 12.4295C99.1574 12.6255 99.3497 12.8351 99.5523 13.0583C99.7545 13.2819 99.8562 13.5058 99.8562 13.729C99.8562 14.8749 99.5626 15.5807 98.9759 15.8462C98.5283 16.0558 97.3338 16.1608 95.3916 16.1608C93.8405 16.1608 92.8029 16.0028 92.2787 15.6878C91.7546 15.3725 91.4927 14.7663 91.4927 13.869C91.4927 13.6587 91.6253 13.4274 91.8909 13.175C92.2121 12.8667 92.394 12.6634 92.436 12.5651C92.6456 12.1588 92.8898 11.1422 93.1698 9.51635C93.4493 7.9605 93.6379 6.56561 93.7359 5.33168C93.7639 5.00938 93.7915 4.25245 93.8199 3.06088L93.5053 2.93491C93.3234 2.93491 93.1628 3.10619 93.0232 3.44874C92.8272 3.93421 92.6526 4.2554 92.499 4.41231C92.1775 4.75486 91.7093 4.92614 91.0945 4.92614C90.5774 4.92614 90.2418 4.75855 90.0882 4.42299C89.9903 4.21341 89.9417 3.80824 89.9417 3.20711C89.9417 2.60599 90.1302 1.92162 90.5074 1.23688C90.9266 0.440533 91.4087 0.0419922 91.9539 0.0419922C92.1495 0.0419922 92.4427 0.087666 92.8342 0.178277C93.2254 0.269256 93.5186 0.314562 93.7145 0.314562C96.0623 0.314562 97.6344 0.293566 98.4307 0.251576C98.5003 0.239052 98.5983 0.200745 98.7243 0.137391C98.8499 0.0740375 98.9618 0.0419922 99.0598 0.0419922C99.6466 0.0419922 100.15 0.424694 100.569 1.1901C100.932 1.84426 101.114 2.49806 101.114 3.15186C101.114 4.33496 100.667 4.92614 99.7726 4.92614C99.2694 4.92614 98.8572 4.59427 98.5357 3.93053C98.2141 3.26715 97.8929 2.93491 97.5714 2.93491L97.3618 3.01889C97.4038 3.48005 97.5014 4.36774 97.6554 5.68086L97.76 6.45658V6.45584Z" fill="#7B92AD"/>
<path id="Vector_29" d="M114.256 10.3203C114.256 12.0788 113.592 13.5514 112.265 14.7374C111.007 15.8538 109.491 16.4119 107.716 16.4119C105.732 16.4119 104.139 15.6303 102.937 14.067C101.861 12.6438 101.323 10.906 101.323 8.85433C101.323 6.59385 101.868 4.61883 102.958 2.93037C104.215 0.976341 105.913 -0.000488281 108.051 -0.000488281C110.189 -0.000488281 111.72 1.18593 112.851 3.55838C113.787 5.49841 114.256 7.75264 114.256 10.3203ZM109.666 7.57178C109.666 6.65241 109.463 5.63544 109.058 4.52085C108.555 3.1278 107.933 2.43127 107.192 2.43127C106.759 2.43127 106.424 2.75173 106.186 3.39263C106.005 3.88031 105.914 4.40261 105.914 4.95991C105.914 5.90727 106.067 6.79201 106.375 7.61377C106.794 8.71436 107.409 9.26466 108.22 9.26466C109.184 9.26466 109.666 8.70074 109.666 7.57215L109.666 7.57178Z" fill="#7B92AD"/>
<path id="Vector_30" d="M121.424 8.61495C121.788 10.7948 122.102 12.0666 122.368 12.4298C122.549 12.6258 122.738 12.8354 122.934 13.0586C123.129 13.2822 123.227 13.5061 123.227 13.7293C123.227 14.596 123.087 15.1898 122.808 15.511C122.528 15.8325 121.991 16.0277 121.194 16.0977C120.788 16.2093 120.251 16.2653 119.58 16.2653C118.909 16.2653 118.147 16.2093 117.295 16.0977C116.345 15.9997 115.705 15.7905 115.377 15.469C115.049 15.1478 114.885 14.6166 114.885 13.8759C114.885 13.6663 115.01 13.4357 115.262 13.1842C115.583 12.877 115.772 12.6744 115.828 12.5764C116.233 11.7661 116.638 9.53727 117.044 5.89V4.50652C117.057 3.66819 116.883 3.10206 116.52 2.80886C116.394 2.73924 116.219 2.63427 115.996 2.4943C115.828 2.32671 115.744 2.08913 115.744 1.78157C115.744 1.2088 116.107 0.782638 116.834 0.50307C117.435 0.265493 118.175 0.153887 119.056 0.167515C119.307 0.167515 119.405 0.167515 119.349 0.167515C119.461 0.155728 119.622 0.149467 119.831 0.149467C119.915 0.13768 120.265 0.107476 120.879 0.0595924C121.298 0.0338088 121.725 0.0279154 122.158 0.0415439C125.386 0.167147 127 1.55799 127 4.21259C127 5.70804 126.622 6.74896 125.868 7.33572C125.393 7.7129 124.603 7.96116 123.499 8.07976C122.395 8.19873 121.704 8.37664 121.424 8.61422L121.424 8.61495ZM121.299 2.26372C120.949 2.26372 120.775 2.50167 120.775 2.97645C120.775 3.96875 120.788 4.6185 120.817 4.92569C120.83 5.09329 120.841 5.26088 120.848 5.42884C120.855 5.59643 120.942 5.7224 121.11 5.80602C121.138 5.82001 121.215 5.83401 121.34 5.84801C121.802 5.84801 122.165 5.63842 122.43 5.21926C122.668 4.84208 122.787 4.41591 122.787 3.94076C122.787 2.82286 122.29 2.26409 121.298 2.26409L121.299 2.26372Z" fill="#7B92AD"/>
</g>
<g id="Group_5">
<path id="Vector_31" d="M12.4693 118.073C12.4693 117.915 12.2944 117.706 11.9452 117.443C11.5953 117.181 11.421 116.919 11.421 116.657C11.421 115.923 12.3993 115.556 14.3567 115.556C14.339 115.556 14.4963 115.543 14.8285 115.517C15.1604 115.491 15.4661 115.477 15.746 115.477C17.1785 115.477 17.9126 115.766 17.9476 116.342C17.9649 116.727 17.8426 117.085 17.5807 117.417C17.2139 117.889 17.0043 118.168 16.9516 118.256C16.7067 118.85 16.6371 119.435 16.742 120.012C17.1262 122.092 17.3185 123.524 17.3185 124.31C17.3185 124.66 17.2662 124.887 17.1612 124.992C16.9163 125.237 16.5582 125.402 16.0868 125.49C15.6149 125.577 15.3354 125.656 15.2481 125.726C13.7449 126.914 12.7927 127.613 12.3912 127.822C11.5172 128.259 10.2855 128.478 8.69571 128.478C6.30152 128.478 4.34492 127.384 2.82442 125.197C1.46157 123.255 0.780151 121.024 0.780151 118.505C0.780151 115.985 1.51388 113.685 2.9817 111.655C4.6068 109.398 6.65991 108.269 9.14103 108.269C9.5079 108.269 10.0365 108.361 10.7267 108.544C11.4166 108.728 11.9279 108.82 12.2601 108.82C12.4347 108.82 12.6966 108.728 13.0465 108.544C13.3957 108.361 13.6579 108.269 13.8329 108.269C14.392 108.269 14.8112 108.597 15.0911 109.252C15.3007 109.747 15.4057 110.305 15.4057 110.925C15.4057 111.987 15.3273 112.74 15.1707 113.182C14.8919 113.925 14.3169 114.297 13.4462 114.297C12.7493 114.297 12.2439 114.071 11.9304 113.616C11.7036 113.18 11.4862 112.742 11.2774 112.306C10.9463 111.851 10.4236 111.624 9.70938 111.624C8.90788 111.624 8.21135 112.052 7.61906 112.908C7.0614 113.695 6.78294 114.499 6.78294 115.32C6.78294 116.526 7.28719 117.443 8.29607 118.072C9.11341 118.562 10.1484 118.806 11.4008 118.806C12.1139 118.806 12.4704 118.561 12.4704 118.072L12.4693 118.073Z" fill="#7B92AD"/>
<path id="Vector_32" d="M25.8363 119.304C26.2031 121.786 26.5788 123.288 26.9634 123.812C27.1903 124.057 27.426 124.319 27.671 124.599C27.9155 124.878 28.0378 125.158 28.0378 125.438C28.0378 126.87 27.6794 127.753 26.9634 128.085C26.4039 128.347 24.9099 128.478 22.4815 128.478C20.4895 128.478 19.1657 128.29 18.5104 127.914C17.8551 127.539 17.5538 126.774 17.6061 125.621C17.6238 125.359 17.7896 125.071 18.1041 124.756C18.4883 124.372 18.7156 124.119 18.7856 123.996C19.0301 123.507 19.327 122.24 19.6766 120.195C19.9911 118.361 20.2269 116.622 20.3841 114.979C20.3318 113.197 20.0957 112.131 19.6766 111.782C19.5193 111.695 19.3005 111.563 19.0213 111.389C18.8117 111.179 18.7067 110.882 18.7067 110.498C18.7067 109.781 19.1609 109.249 20.0696 108.899C20.8033 108.602 21.7293 108.462 22.8479 108.48H26.8842C28.3343 108.48 29.6099 108.768 30.7108 109.343C32.0737 110.04 32.7551 111.051 32.7551 112.375C32.7551 114.031 31.8641 115.347 30.0817 116.323C30.2563 116.863 30.632 117.264 31.2088 117.525C32.0648 117.909 32.5017 118.1 32.5194 118.1C33.2358 118.693 33.7684 119.312 34.1183 119.956C34.4329 120.531 34.6948 121.307 34.9047 122.283C35.2016 123.73 35.6473 124.958 36.2414 125.969C36.2764 126.039 36.5037 126.291 36.9228 126.727C37.2374 127.059 37.3947 127.337 37.3947 127.564C37.3947 127.739 37.2459 127.912 36.949 128.087C36.7394 128.209 36.5295 128.34 36.3199 128.479C36.0053 128.496 35.4896 128.566 34.7736 128.688C34.1795 128.793 33.6726 128.845 33.2535 128.845C31.4361 128.845 30.1867 128.129 29.5053 126.696C29.173 125.997 28.8585 124.52 28.5616 122.266C28.2993 120.379 27.854 119.156 27.2249 118.597C27.0153 118.422 26.7619 118.37 26.4646 118.44C25.9751 118.562 25.7655 118.85 25.8355 119.304H25.8363ZM25.9151 111.232C25.6878 111.232 25.4827 111.314 25.2992 111.478C25.1158 111.642 25.0414 111.836 25.0764 112.06L25.286 114.726C25.321 115.175 25.4779 115.399 25.7578 115.399C26.282 115.399 26.7015 115.149 27.016 114.648C27.2952 114.2 27.4356 113.699 27.4356 113.147C27.4356 111.87 26.9284 111.232 25.9155 111.232H25.9151Z" fill="#7B92AD"/>
<path id="Vector_33" d="M54.379 121.175C54.379 123.374 53.5488 125.215 51.8891 126.699C50.3163 128.095 48.4205 128.793 46.2016 128.793C43.7201 128.793 41.7281 127.815 40.2257 125.861C38.8798 124.081 38.2076 121.908 38.2076 119.343C38.2076 116.516 38.889 114.046 40.2519 111.935C41.8246 109.492 43.9474 108.27 46.6211 108.27C49.2949 108.27 51.208 109.753 52.6232 112.72C53.7938 115.146 54.3794 117.964 54.3794 121.175H54.379ZM48.6389 117.738C48.6389 116.589 48.3855 115.317 47.8786 113.923C47.2495 112.181 46.472 111.31 45.546 111.31C45.0041 111.31 44.5846 111.711 44.2877 112.512C44.0605 113.122 43.947 113.775 43.947 114.471C43.947 115.656 44.1389 116.762 44.5235 117.79C45.0476 119.166 45.8163 119.854 46.83 119.854C48.0355 119.854 48.6385 119.149 48.6385 117.738L48.6389 117.738Z" fill="#7B92AD"/>
<path id="Vector_34" d="M75.7143 121.873C75.7143 122.817 75.8362 123.463 76.0811 123.813C76.308 124.058 76.5438 124.32 76.7887 124.599C77.0333 124.879 77.1556 125.159 77.1556 125.438C77.1556 126.609 76.9545 127.386 76.5526 127.771C76.1504 128.155 75.3378 128.382 74.115 128.452C73.8354 128.522 73.4682 128.557 73.014 128.557C71.1966 128.557 70.0522 128.513 69.5804 128.426C68.9862 128.321 68.5844 128.111 68.3748 127.797C67.9203 127.308 67.6934 126.548 67.6934 125.516C67.6934 125.115 67.8853 124.774 68.2698 124.494C68.5321 124.302 68.8024 124.101 69.0824 123.891C69.1174 123.839 69.1347 123.752 69.1347 123.629C69.1347 123.384 69.0562 122.93 68.8989 122.266C68.6717 121.236 68.5321 120.615 68.4798 120.405C68.3048 119.445 68.2087 118.938 68.1914 118.885C67.9818 118.169 67.6934 117.82 67.3265 117.837C66.8897 117.837 66.4616 118.722 66.0421 120.491C65.6399 122.138 65.4391 123.084 65.4391 123.328C65.4391 123.556 65.4741 123.723 65.5441 123.828C65.771 124.073 66.0068 124.336 66.2517 124.616C66.4963 124.896 66.6186 125.176 66.6186 125.456C66.6186 126.788 66.3302 127.638 65.7537 128.005C65.2465 128.321 64.0671 128.487 62.2155 128.504C61.9182 128.539 61.2979 128.557 60.3546 128.557C59.6209 128.557 59.0791 128.495 58.7295 128.373C57.7508 128.251 57.0783 127.971 56.7114 127.533C56.3615 127.148 56.1873 126.519 56.1873 125.644C56.1873 125.381 56.353 125.092 56.6852 124.778C57.0694 124.393 57.2967 124.139 57.3667 124.017C57.5589 123.649 57.6985 123.116 57.7862 122.415V122.258C57.8035 120.001 57.6639 117.919 57.3667 116.012C57.0344 113.843 56.5714 112.46 55.9777 111.865C55.7504 111.708 55.5191 111.555 55.283 111.406C55.0473 111.257 54.929 110.956 54.929 110.5C54.929 109.749 55.427 109.197 56.423 108.847C57.1044 108.602 57.9254 108.48 58.8868 108.48C61.7348 108.48 63.1591 109.092 63.1591 110.314C63.1591 110.717 63.0453 111.013 62.8184 111.205C62.4162 111.52 62.1981 111.712 62.1632 111.782C62.1109 111.922 62.0847 112.061 62.0847 112.201C62.0847 112.394 62.2243 112.865 62.5042 113.617C63.0457 115.085 63.4741 115.818 63.7886 115.818C64.1555 115.818 64.5397 115.569 64.9419 115.071C65.3437 114.573 65.5533 114.133 65.571 113.748C65.606 113.066 65.4833 112.499 65.2041 112.044C65.0819 111.87 64.8019 111.581 64.3654 111.179C64.0509 110.882 63.8848 110.594 63.8674 110.314C63.8151 109.039 64.9946 108.401 67.4057 108.401C68.3663 108.401 69.0654 108.471 69.5026 108.61C70.2714 108.855 70.6559 109.344 70.6559 110.078C70.6559 110.393 70.4725 110.72 70.1056 111.061C69.7387 111.402 69.5553 111.66 69.5553 111.834C69.5553 112.149 69.6732 112.594 69.9093 113.171C70.145 113.747 70.3679 114.158 70.5778 114.403C70.7174 114.595 70.8703 114.779 71.0364 114.953C71.2021 115.128 71.3904 115.215 71.5999 115.215C71.6872 115.215 71.9756 114.779 72.4648 113.905C72.9536 113.031 73.1985 112.498 73.1985 112.306C73.1985 111.991 72.9797 111.742 72.5433 111.559C72.1064 111.375 71.888 111.021 71.888 110.497C71.888 109.798 72.316 109.265 73.1724 108.898C73.8015 108.619 74.5175 108.479 75.3216 108.479C77.7154 108.479 78.9125 109.091 78.9125 110.314C78.9125 110.663 78.8426 110.899 78.703 111.021C78.4934 111.126 78.2834 111.24 78.0738 111.362C77.6893 111.572 77.3401 112.087 77.0255 112.908C76.7806 113.555 76.6233 114.184 76.5537 114.795L75.715 121.872L75.7143 121.873Z" fill="#7B92AD"/>
<path id="Vector_35" d="M80.7465 114.98C80.7288 113.215 80.4931 112.149 80.0389 111.782C79.8817 111.695 79.6629 111.564 79.3837 111.389C79.1741 111.179 79.0691 110.883 79.0691 110.498C79.0691 109.782 79.5233 109.249 80.4319 108.899C81.183 108.602 82.1094 108.463 83.2103 108.48C84.7654 108.498 85.8576 108.681 86.4867 109.03C87.0281 109.31 87.2992 109.738 87.2992 110.315C87.2992 110.664 87.216 110.918 87.0502 111.075C86.8841 111.232 86.7136 111.381 86.539 111.521C86.364 111.661 86.2333 111.853 86.146 112.097C85.8314 112.866 85.6741 114.037 85.6741 115.609V115.74C85.8314 117.243 86.076 118.824 86.4078 120.484C86.757 122.354 87.0631 123.464 87.325 123.813C87.5519 124.058 87.7924 124.32 88.0458 124.599C88.2989 124.879 88.426 125.159 88.426 125.438C88.426 126.871 88.0591 127.754 87.325 128.085C86.7655 128.348 85.2715 128.478 82.8431 128.478C80.8861 128.478 79.584 128.282 78.9376 127.889C78.2908 127.496 77.9678 126.74 77.9678 125.622C77.9678 125.359 78.1335 125.071 78.4658 124.757C78.8676 124.373 79.0949 124.119 79.1472 123.997C79.3918 123.507 79.6886 122.24 80.0382 120.196C80.3528 118.361 80.5885 116.623 80.7458 114.98L80.7465 114.98Z" fill="#7B92AD"/>
<path id="Vector_36" d="M97.3113 119.331C97.3113 119.767 97.4727 120.567 97.7961 121.729C98.1191 122.891 98.3725 123.594 98.5563 123.839C98.7397 124.084 98.9364 124.328 99.146 124.572C99.4083 124.87 99.5652 125.158 99.6179 125.437C99.6702 125.787 99.6963 126.101 99.6963 126.381C99.6963 127.15 99.4167 127.691 98.8576 128.006C98.4031 128.251 97.5905 128.399 96.42 128.452C95.8781 128.521 94.6987 128.557 92.8817 128.557C92.1826 128.557 91.4662 128.417 90.7325 128.137C90.0857 127.91 89.6577 127.587 89.4481 127.167C89.2554 126.87 89.1597 126.521 89.1597 126.119V125.621C89.1597 125.394 89.2731 125.158 89.5004 124.913C89.6923 124.721 89.8934 124.52 90.1033 124.31C90.6275 122.318 91.0032 120.466 91.2305 118.754C91.4227 117.374 91.5535 116.116 91.6235 114.979C91.7284 113.32 91.4923 112.254 90.9159 111.782C90.7586 111.695 90.5398 111.563 90.2606 111.389C90.051 111.179 89.9461 110.882 89.9461 110.498C89.9461 109.781 90.4002 109.249 91.3089 108.899C92.0426 108.602 92.9686 108.462 94.0873 108.48C95.9916 108.515 97.2148 108.786 97.7566 109.292C98.5777 109.834 99.3202 111.127 99.9843 113.172C100.718 115.373 101.434 116.815 102.134 117.496C102.308 117.653 102.5 117.697 102.71 117.627C102.92 117.365 103.025 116.981 103.025 116.474C103.025 116.282 102.998 115.985 102.946 115.583V115.452L102.92 115.4C102.868 114.98 102.806 114.535 102.737 114.063C102.439 113.085 101.959 112.324 101.295 111.783C101.138 111.695 100.919 111.564 100.64 111.39C100.447 111.18 100.351 110.883 100.351 110.499C100.351 109.782 100.805 109.25 101.714 108.9C102.448 108.603 103.374 108.463 104.492 108.48C106.03 108.498 107.122 108.682 107.769 109.031C108.293 109.31 108.555 109.738 108.555 110.315C108.555 110.665 108.477 110.918 108.319 111.075C108.162 111.233 107.996 111.381 107.821 111.521C107.646 111.661 107.507 111.853 107.402 112.098C107.192 112.464 106.983 112.84 106.773 113.225C106.458 113.871 106.301 114.597 106.301 115.4C106.301 115.365 106.301 115.478 106.301 115.741C106.336 116.702 106.606 118.152 107.114 120.092C107.585 121.944 107.821 123.386 107.821 124.416C107.821 125.779 107.707 126.723 107.48 127.247C107.114 128.068 106.353 128.479 105.2 128.479C103.924 128.479 102.771 127.649 101.74 125.989C101.478 125.552 100.762 124.014 99.591 121.376C98.8572 119.716 98.1928 118.886 97.599 118.886C97.4064 118.886 97.3106 119.034 97.3106 119.331L97.3113 119.331Z" fill="#7B92AD"/>
<path id="Vector_37" d="M120.769 118.073C120.769 117.915 120.594 117.706 120.245 117.443C119.895 117.181 119.721 116.919 119.721 116.657C119.721 115.923 120.699 115.556 122.657 115.556C122.639 115.556 122.796 115.543 123.128 115.517C123.46 115.491 123.766 115.477 124.046 115.477C125.478 115.477 126.213 115.766 126.248 116.342C126.265 116.727 126.143 117.085 125.881 117.417C125.514 117.889 125.304 118.168 125.252 118.256C125.007 118.85 124.937 119.435 125.042 120.012C125.426 122.092 125.618 123.524 125.618 124.31C125.618 124.66 125.566 124.887 125.461 124.992C125.216 125.237 124.858 125.402 124.386 125.49C123.914 125.577 123.635 125.656 123.548 125.726C122.044 126.914 121.092 127.613 120.691 127.822C119.817 128.259 118.585 128.478 116.995 128.478C114.601 128.478 112.644 127.384 111.124 125.197C109.761 123.255 109.08 121.024 109.08 118.505C109.08 115.985 109.813 113.685 111.281 111.655C112.906 109.398 114.959 108.269 117.441 108.269C117.807 108.269 118.336 108.361 119.026 108.544C119.716 108.728 120.227 108.82 120.56 108.82C120.734 108.82 120.996 108.728 121.346 108.544C121.695 108.361 121.958 108.269 122.132 108.269C122.692 108.269 123.111 108.597 123.391 109.252C123.6 109.747 123.705 110.305 123.705 110.925C123.705 111.987 123.627 112.74 123.47 113.182C123.191 113.925 122.616 114.297 121.746 114.297C121.049 114.297 120.543 114.071 120.23 113.616C120.003 113.18 119.786 112.742 119.577 112.306C119.246 111.851 118.723 111.624 118.009 111.624C117.207 111.624 116.511 112.052 115.919 112.908C115.361 113.695 115.082 114.499 115.082 115.32C115.082 116.526 115.587 117.443 116.596 118.072C117.413 118.562 118.448 118.806 119.7 118.806C120.413 118.806 120.77 118.561 120.77 118.072L120.769 118.073Z" fill="#7B92AD"/>
</g>
</g>
</g>
</g>
</g>
<defs>
<clipPath id="clip0_130_324">
<rect width="127" height="128.845" fill="white"/>
</clipPath>
</defs>
</svg>
