<svg width="25" height="12" viewBox="0 0 25 12" fill="none" xmlns="http://www.w3.org/2000/svg">
<g id="Burger">
<path id="Line 3 (Stroke)" fill-rule="evenodd" clip-rule="evenodd" d="M0 1C0 0.447715 0.447715 0 1 0H19C19.5523 0 20 0.447715 20 1C20 1.55228 19.5523 2 19 2H1C0.447715 2 0 1.55228 0 1Z" fill="#262840"/>
<path id="Line 4 (Stroke)" fill-rule="evenodd" clip-rule="evenodd" d="M5 6C5 5.44772 5.44772 5 6 5H24C24.5523 5 25 5.44772 25 6C25 6.55228 24.5523 7 24 7H6C5.44772 7 5 6.55228 5 6Z" fill="#262840"/>
<path id="Line 5 (Stroke)" fill-rule="evenodd" clip-rule="evenodd" d="M0 11C0 10.4477 0.447715 10 1 10H19C19.5523 10 20 10.4477 20 11C20 11.5523 19.5523 12 19 12H1C0.447715 12 0 11.5523 0 11Z" fill="#262840"/>
</g>
</svg>
